<svg version="1.1" id="Layer_1" xmlns="http://www.w3.org/2000/svg" xmlns:xlink="http://www.w3.org/1999/xlink" x="0px" y="0px"
	 width="100%" viewBox="0 0 451 280" enable-background="new 0 0 451 280" xml:space="preserve">
<path fill="#080808" opacity="1.000000" stroke="none" 
	d="
M295.809875,151.244629 
	C320.381195,168.529678 348.161346,171.242737 376.643646,171.241119 
	C383.778107,171.240707 391.066711,170.867493 398.014038,172.140976 
	C411.365173,174.588318 419.705261,183.004593 423.015594,196.289352 
	C423.531952,198.361618 424.150787,200.518356 425.244019,202.319321 
	C433.372650,215.709976 431.982178,227.479446 420.511169,238.115646 
	C407.344452,250.324188 391.139496,256.894745 374.251984,261.763916 
	C354.207825,267.543243 333.856934,270.972137 312.774048,270.806641 
	C241.798065,270.249481 170.817215,270.339294 99.838646,270.070618 
	C75.308411,269.977783 50.975441,267.772736 26.836157,263.133575 
	C18.479971,261.527618 14.112448,257.547089 12.659450,249.072098 
	C10.948249,239.091095 10.531699,229.260361 12.174833,219.279892 
	C12.875875,215.021713 13.714816,210.653793 13.469726,206.394516 
	C12.207566,184.460297 15.292344,162.948792 18.040737,141.271179 
	C19.427485,130.333374 24.198353,120.694679 25.910633,110.121338 
	C28.038433,96.982185 29.878975,83.796730 31.917280,70.642685 
	C32.297894,68.186417 33.029427,65.784790 33.592945,63.356541 
	C36.456673,51.016453 43.368046,43.766037 56.735664,42.403370 
	C70.448578,41.005508 84.265770,39.130150 97.571075,35.670597 
	C110.033890,32.430103 121.983482,27.081699 133.978943,22.217108 
	C145.093262,17.709848 156.063553,13.090407 168.151443,11.587436 
	C175.122543,10.720671 180.555908,12.730844 185.213455,17.667936 
	C195.421097,28.488207 200.154617,41.798882 203.040924,56.057068 
	C204.410583,62.823132 206.509720,69.438812 208.154984,76.152855 
	C209.101990,80.017410 210.216461,83.908783 210.535904,87.846466 
	C211.473816,99.407967 216.481766,108.277054 226.546005,114.276543 
	C231.548111,117.258385 236.479675,120.390472 241.226974,123.759224 
	C246.365936,127.405930 251.560486,130.220795 258.226074,129.319733 
	C259.790283,129.108276 261.716858,130.187469 263.215240,131.101547 
	C274.015320,137.689957 284.748108,144.388718 295.809875,151.244629 
M154.340302,189.146088 
	C137.105499,183.271790 119.870712,177.397491 102.214775,171.379654 
	C106.035332,178.290070 109.554146,184.273254 112.702271,190.445511 
	C116.632797,198.151749 120.306755,205.990768 123.992752,213.818954 
	C125.608208,217.249771 127.783669,219.235748 131.919205,219.427658 
	C141.232544,219.859833 150.512955,220.990372 159.825882,221.445175 
	C186.784256,222.761749 213.753143,223.861832 240.714554,225.118729 
	C243.512131,225.249146 245.098801,224.511292 246.417953,221.741241 
	C253.957092,205.909988 255.388107,189.109985 254.512482,171.985291 
	C254.398209,169.750122 252.680511,166.887909 250.818268,165.565765 
	C238.358978,156.720078 225.549683,148.367523 213.086075,139.527695 
	C207.336258,135.449631 201.503784,132.591736 194.239670,132.788910 
	C188.757309,132.937729 183.255997,132.175751 177.761353,132.145920 
	C172.431686,132.116989 168.554092,129.716324 165.455780,125.659233 
	C164.475372,124.375435 163.531250,123.063927 162.056091,121.069626 
	C120.642998,147.999832 77.610115,149.188644 33.470951,127.904816 
	C32.825619,130.406494 32.519909,131.591599 32.227905,132.723557 
	C33.013004,133.143112 33.423088,133.461380 33.886501,133.595825 
	C77.500328,146.248596 121.103310,158.939484 164.763458,171.430557 
	C168.354340,172.457870 172.370163,172.600540 176.128937,172.329025 
	C187.915817,171.477585 191.832870,166.594101 190.141098,154.984558 
	C189.512405,150.670242 188.135574,146.464935 186.887268,141.336288 
	C198.541122,147.111832 208.655228,153.503296 215.484848,163.770126 
	C220.131027,170.754669 221.465652,178.924728 217.892700,186.637512 
	C214.308945,194.373657 206.571335,195.765961 198.812988,196.134323 
	C183.790527,196.847595 169.345947,193.771866 154.340302,189.146088 
M298.500488,257.305298 
	C315.800110,257.022552 333.127716,257.725494 350.256531,254.070755 
	C370.057709,249.845825 389.475067,244.800613 406.236237,232.717804 
	C407.910797,231.510666 409.365997,229.999207 411.458771,228.157486 
	C409.751556,228.028412 408.888336,227.748550 408.156433,227.948730 
	C406.104919,228.509872 404.115784,229.294418 402.087769,229.946503 
	C370.567139,240.082169 337.929291,243.732956 305.133087,244.732254 
	C270.026337,245.801971 234.795029,246.319916 199.738983,244.605927 
	C157.856735,242.558228 116.086983,238.061050 74.300896,234.267975 
	C57.610958,232.752975 41.007530,230.284973 23.597603,228.157013 
	C24.065155,233.196976 24.627596,237.774811 24.879768,242.369675 
	C25.167921,247.620178 27.491270,250.082993 32.946018,251.117126 
	C56.307961,255.546265 79.937149,256.674377 103.576317,256.830566 
	C168.215973,257.257690 232.858887,257.190735 298.500488,257.305298 
M90.562653,134.082809 
	C96.867180,135.405609 100.259315,132.928497 102.925636,126.878822 
	C107.151947,117.289650 115.034920,110.764755 124.407715,106.105415 
	C139.756241,98.475464 155.094147,90.824043 170.415024,83.138809 
	C172.520691,82.082573 174.503082,80.780632 177.269440,79.168968 
	C170.823593,77.070488 167.094315,73.615143 167.016632,67.459610 
	C166.939102,61.315041 170.992493,58.386875 176.056778,56.206707 
	C177.003677,55.799065 178.073502,54.392517 178.124420,53.397717 
	C178.439590,47.238415 172.548355,41.332802 166.320312,42.001480 
	C161.393936,42.530411 156.284500,43.306599 151.743668,45.164219 
	C116.654686,59.518864 81.671799,74.133675 46.719017,88.817764 
	C45.169430,89.468765 43.512238,91.400780 43.127018,93.025757 
	C41.247036,100.956123 39.821095,108.993065 38.148430,116.974258 
	C37.618530,119.502739 38.331184,120.981224 40.854519,121.909325 
	C56.674862,127.728203 72.699280,132.682831 90.562653,134.082809 
M32.192085,151.159241 
	C31.428213,152.340912 30.252314,153.430099 29.963209,154.718323 
	C26.475758,170.257904 26.077171,185.998886 26.738941,201.853317 
	C26.916630,206.110291 28.428635,207.585800 32.435608,208.059143 
	C53.566509,210.555267 74.667946,213.299927 95.794319,215.835785 
	C102.071709,216.589249 108.396774,216.945648 115.950050,217.590759 
	C110.295158,206.078033 105.241974,195.828415 100.225075,185.561050 
	C97.550514,180.087448 93.434044,176.314331 87.747879,174.002243 
	C69.443207,166.559387 51.198036,158.970215 32.192085,151.159241 
M304.857788,211.445938 
	C303.739441,215.495285 302.621063,219.544647 301.195648,224.705765 
	C313.799988,223.375214 325.186981,222.339554 336.529175,220.940796 
	C359.328705,218.129059 381.847626,213.929230 403.490204,205.960541 
	C411.396851,203.049347 412.183533,200.205322 407.563354,193.002686 
	C406.674225,191.616577 405.704651,189.957413 404.345642,189.279785 
	C402.656830,188.437698 399.969055,187.535980 398.670502,188.296143 
	C386.810211,195.239212 373.713928,197.032562 360.409149,198.284576 
	C350.989655,199.171005 341.686066,199.986038 333.614655,206.221619 
	C323.792694,213.809570 315.762756,211.224854 310.989624,199.762115 
	C310.916290,199.586105 310.550446,199.531876 309.932800,199.232712 
	C308.290710,203.088257 306.672455,206.887787 304.857788,211.445938 
M258.846985,214.250214 
	C257.693665,217.597168 256.540375,220.944107 255.129761,225.037750 
	C267.375214,225.037750 278.674805,225.130615 289.967041,224.885223 
	C291.024353,224.862259 292.678925,222.842651 292.966705,221.514099 
	C295.448883,210.053970 298.859070,199.011429 306.411804,189.060822 
	C292.255127,183.237183 278.388580,177.532883 265.169128,172.094772 
	C263.064087,186.274597 261.046082,199.868149 258.846985,214.250214 
M415.696045,214.932907 
	C416.983368,211.629272 415.351074,210.893326 412.609283,211.745270 
	C409.760315,212.630508 407.072113,214.020721 404.246094,214.994156 
	C372.502747,225.928329 339.594635,230.847565 306.277191,232.721375 
	C238.891876,236.511230 171.738968,232.085632 104.716698,225.402267 
	C79.706779,222.908310 54.790127,219.482239 29.821056,216.565887 
	C28.611935,216.424667 27.307220,217.101883 26.047022,217.397980 
	C26.083727,218.029831 26.120434,218.661682 26.157139,219.293549 
	C33.511108,220.307190 40.858894,221.368317 48.220039,222.326859 
	C98.774834,228.909821 149.481171,234.070755 200.424088,236.117416 
	C254.888260,238.305527 309.364868,238.839111 363.438110,230.004623 
	C381.186218,227.104935 398.843079,223.729187 415.696045,214.932907 
M172.743103,24.953102 
	C169.950867,25.110249 166.973267,24.695274 164.400177,25.528873 
	C155.729477,28.337900 146.926498,30.993380 138.680878,34.804123 
	C123.674995,41.739143 108.464645,47.858204 92.097610,50.594055 
	C80.127861,52.594883 68.074730,54.107536 56.128620,56.230770 
	C53.530884,56.692478 49.893135,58.271320 49.045795,60.300732 
	C46.544968,66.290276 45.202618,72.763535 43.057999,80.268761 
	C46.427658,78.863800 48.267712,78.139633 50.072914,77.337059 
	C63.433182,71.397224 76.577011,64.902695 90.189247,59.612789 
	C112.766327,50.839016 135.560593,42.599777 158.433090,34.621975 
	C168.082962,31.256155 177.230118,32.401985 183.838486,41.859783 
	C183.142105,34.470020 178.802216,29.553877 172.743103,24.953102 
M190.962036,71.799408 
	C189.130356,71.824623 188.783905,71.878716 189.190796,74.484703 
	C190.268295,81.385696 187.869324,85.815002 181.043701,87.961044 
	C178.383652,88.797401 175.902939,90.326767 173.501068,91.801834 
	C172.528229,92.399269 171.356018,93.687202 171.344574,94.673347 
	C171.257660,102.160538 171.357574,109.652954 171.562988,117.139259 
	C171.675156,121.227402 174.182205,122.956177 178.099335,123.099045 
	C182.925583,123.275070 187.829910,123.089180 192.552612,123.910248 
	C199.714935,125.155434 204.237823,121.997421 207.866791,116.201942 
	C204.921631,111.182495 201.931534,106.086487 198.866287,100.862366 
	C193.079254,106.255142 187.747589,111.267685 182.360794,116.220245 
	C180.382477,118.039062 178.291153,118.316727 176.205734,116.253777 
	C173.939804,114.012253 174.929230,112.138283 176.740845,110.255798 
	C182.398346,104.377007 187.994217,98.438530 193.682068,92.589401 
	C198.217148,87.925781 198.183426,83.930717 193.937805,78.874268 
	C192.518387,77.183754 191.988968,74.745949 190.962036,71.799408 
M113.937256,132.208878 
	C129.270554,125.836601 144.616577,119.494362 159.907761,113.022560 
	C160.898468,112.603256 162.065033,111.223862 162.127182,110.227295 
	C162.379379,106.183868 162.231995,102.115509 162.231995,96.507057 
	C147.226257,104.609055 133.279068,111.618721 119.939560,119.639091 
	C115.577644,122.261696 112.796478,127.513412 109.292397,131.562759 
	C109.644768,131.930893 109.997147,132.299042 110.349518,132.667175 
	C111.299423,132.581573 112.249329,132.495987 113.937256,132.208878 
M372.357697,184.480225 
	C355.596436,182.988373 338.835175,181.496536 321.587494,179.961395 
	C321.233856,184.504089 320.618347,189.780548 320.513062,195.067169 
	C320.471375,197.158371 321.564575,199.272202 322.141052,201.375732 
	C324.079895,200.770020 326.366852,200.629272 327.899841,199.481506 
	C336.479523,193.057693 346.125458,190.393799 356.718781,189.717545 
	C365.428040,189.161575 374.070526,187.559128 382.742584,186.420486 
	C382.696503,185.782379 382.650421,185.144257 382.604340,184.506149 
	C379.505890,184.506149 376.407410,184.506149 372.357697,184.480225 
M279.092712,156.477325 
	C277.675018,155.685257 276.257324,154.893173 274.143036,153.711899 
	C272.852295,155.299240 271.630402,156.874557 270.329041,158.381256 
	C269.111969,159.790359 267.810638,161.126663 266.458923,162.589676 
	C279.789581,169.612656 282.337219,169.421021 286.868042,161.278519 
	C284.481018,159.812347 282.086426,158.341507 279.092712,156.477325 
M260.537018,144.934509 
	C257.866821,143.911240 255.196609,142.887970 251.603241,141.510925 
	C251.603241,145.906586 251.221939,149.226151 251.747620,152.395279 
	C252.058304,154.268234 253.441925,156.595886 255.021225,157.420898 
	C256.233643,158.054260 258.785675,157.069275 260.245148,156.074860 
	C262.798370,154.335190 264.970032,152.035477 267.742310,149.580063 
	C265.021851,147.796371 263.112701,146.544617 260.537018,144.934509 
M291.065521,173.094818 
	C298.121643,176.008865 305.177795,178.922928 312.321259,181.873047 
	C313.669250,177.423981 312.909363,175.228699 309.135803,174.055252 
	C306.333832,173.183945 303.732605,171.560165 301.166656,170.058456 
	C295.246979,166.594009 294.832245,166.644440 291.065521,173.094818 
M220.377533,134.129959 
	C221.991058,135.517105 223.604568,136.904251 225.053970,138.150299 
	C227.159821,136.364105 229.093475,134.723938 231.332825,132.824478 
	C225.643555,129.232147 220.638245,126.071671 215.372192,122.746567 
	C213.868225,124.139740 212.472076,125.433029 210.764069,127.015213 
	C214.033249,129.428848 216.919403,131.559723 220.377533,134.129959 
M183.703369,69.019974 
	C185.759659,69.570992 187.815948,70.122009 190.103073,70.734886 
	C189.460373,65.045425 191.598465,59.132828 187.217682,53.576130 
	C189.525742,61.505005 184.795807,63.411869 179.132584,64.890541 
	C177.868561,65.220573 176.956772,66.899605 175.882812,67.957558 
	C177.384552,68.555283 178.850327,69.296349 180.404190,69.686378 
	C181.113068,69.864296 181.995819,69.349419 183.703369,69.019974 
M241.063782,139.237396 
	C238.283600,140.569016 235.503433,141.900650 231.755341,143.695877 
	C235.991089,146.496964 238.750793,148.321945 242.413956,150.744385 
	C242.413956,147.203339 242.488480,144.907822 242.378326,142.621170 
	C242.332474,141.669418 241.892960,140.736603 241.063782,139.237396 
M101.125603,171.525360 
	C101.337234,171.608521 101.548874,171.691666 101.760513,171.774811 
	C101.700287,171.557297 101.640068,171.339798 101.125603,171.525360 
z"/>
<path fill="#F2F2F2" opacity="1.000000" stroke="none" 
	d="
M154.722931,189.269318 
	C169.345947,193.771866 183.790527,196.847595 198.812988,196.134323 
	C206.571335,195.765961 214.308945,194.373657 217.892700,186.637512 
	C221.465652,178.924728 220.131027,170.754669 215.484848,163.770126 
	C208.655228,153.503296 198.541122,147.111832 186.887268,141.336288 
	C188.135574,146.464935 189.512405,150.670242 190.141098,154.984558 
	C191.832870,166.594101 187.915817,171.477585 176.128937,172.329025 
	C172.370163,172.600540 168.354340,172.457870 164.763458,171.430557 
	C121.103310,158.939484 77.500328,146.248596 33.886501,133.595825 
	C33.423088,133.461380 33.013004,133.143112 32.227905,132.723557 
	C32.519909,131.591599 32.825619,130.406494 33.470951,127.904816 
	C77.610115,149.188644 120.642998,147.999832 162.056091,121.069626 
	C163.531250,123.063927 164.475372,124.375435 165.455780,125.659233 
	C168.554092,129.716324 172.431686,132.116989 177.761353,132.145920 
	C183.255997,132.175751 188.757309,132.937729 194.239670,132.788910 
	C201.503784,132.591736 207.336258,135.449631 213.086075,139.527695 
	C225.549683,148.367523 238.358978,156.720078 250.818268,165.565765 
	C252.680511,166.887909 254.398209,169.750122 254.512482,171.985291 
	C255.388107,189.109985 253.957092,205.909988 246.417953,221.741241 
	C245.098801,224.511292 243.512131,225.249146 240.714554,225.118729 
	C213.753143,223.861832 186.784256,222.761749 159.825882,221.445175 
	C150.512955,220.990372 141.232544,219.859833 131.919205,219.427658 
	C127.783669,219.235748 125.608208,217.249771 123.992752,213.818954 
	C120.306755,205.990768 116.632797,198.151749 112.702271,190.445511 
	C109.554146,184.273254 106.035332,178.290070 102.214775,171.379654 
	C119.870712,177.397491 137.105499,183.271790 154.722931,189.269318 
z"/>
<path fill="#EFEFEF" opacity="1.000000" stroke="none" 
	d="
M298.000488,257.312378 
	C232.858887,257.190735 168.215973,257.257690 103.576317,256.830566 
	C79.937149,256.674377 56.307961,255.546265 32.946018,251.117126 
	C27.491270,250.082993 25.167921,247.620178 24.879768,242.369675 
	C24.627596,237.774811 24.065155,233.196976 23.597603,228.157013 
	C41.007530,230.284973 57.610958,232.752975 74.300896,234.267975 
	C116.086983,238.061050 157.856735,242.558228 199.738983,244.605927 
	C234.795029,246.319916 270.026337,245.801971 305.133087,244.732254 
	C337.929291,243.732956 370.567139,240.082169 402.087769,229.946503 
	C404.115784,229.294418 406.104919,228.509872 408.156433,227.948730 
	C408.888336,227.748550 409.751556,228.028412 411.458771,228.157486 
	C409.365997,229.999207 407.910797,231.510666 406.236237,232.717804 
	C389.475067,244.800613 370.057709,249.845825 350.256531,254.070755 
	C333.127716,257.725494 315.800110,257.022552 298.000488,257.312378 
z"/>
<path fill="#F2F2F2" opacity="1.000000" stroke="none" 
	d="
M90.093208,134.065094 
	C72.699280,132.682831 56.674862,127.728203 40.854519,121.909325 
	C38.331184,120.981224 37.618530,119.502739 38.148430,116.974258 
	C39.821095,108.993065 41.247036,100.956123 43.127018,93.025757 
	C43.512238,91.400780 45.169430,89.468765 46.719017,88.817764 
	C81.671799,74.133675 116.654686,59.518864 151.743668,45.164219 
	C156.284500,43.306599 161.393936,42.530411 166.320312,42.001480 
	C172.548355,41.332802 178.439590,47.238415 178.124420,53.397717 
	C178.073502,54.392517 177.003677,55.799065 176.056778,56.206707 
	C170.992493,58.386875 166.939102,61.315041 167.016632,67.459610 
	C167.094315,73.615143 170.823593,77.070488 177.269440,79.168968 
	C174.503082,80.780632 172.520691,82.082573 170.415024,83.138809 
	C155.094147,90.824043 139.756241,98.475464 124.407715,106.105415 
	C115.034920,110.764755 107.151947,117.289650 102.925636,126.878822 
	C100.259315,132.928497 96.867180,135.405609 90.093208,134.065094 
M95.288559,107.918114 
	C112.606842,102.855225 128.727524,87.674919 132.390427,72.477402 
	C127.871666,75.117363 123.734116,77.534607 119.434563,80.046501 
	C118.939606,77.338158 118.573708,75.336021 118.349960,74.111710 
	C113.395676,74.837639 109.206963,75.642372 104.980019,76.028305 
	C97.693916,76.693550 91.522522,79.064018 87.081650,85.342377 
	C84.066673,89.604858 80.466675,93.453537 77.009132,97.631264 
	C77.824455,98.220070 79.606674,99.507156 81.686043,101.008842 
	C77.064529,104.006172 72.914024,106.698029 68.763519,109.389893 
	C68.970955,109.965355 69.178391,110.540825 69.385826,111.116287 
	C77.746445,110.094414 86.107056,109.072540 95.288559,107.918114 
z"/>
<path fill="#F3F3F3" opacity="1.000000" stroke="none" 
	d="
M32.561005,151.298340 
	C51.198036,158.970215 69.443207,166.559387 87.747879,174.002243 
	C93.434044,176.314331 97.550514,180.087448 100.225075,185.561050 
	C105.241974,195.828415 110.295158,206.078033 115.950050,217.590759 
	C108.396774,216.945648 102.071709,216.589249 95.794319,215.835785 
	C74.667946,213.299927 53.566509,210.555267 32.435608,208.059143 
	C28.428635,207.585800 26.916630,206.110291 26.738941,201.853317 
	C26.077171,185.998886 26.475758,170.257904 29.963209,154.718323 
	C30.252314,153.430099 31.428213,152.340912 32.561005,151.298340 
z"/>
<path fill="#F0F0F0" opacity="1.000000" stroke="none" 
	d="
M304.955994,211.066620 
	C306.672455,206.887787 308.290710,203.088257 309.932800,199.232712 
	C310.550446,199.531876 310.916290,199.586105 310.989624,199.762115 
	C315.762756,211.224854 323.792694,213.809570 333.614655,206.221619 
	C341.686066,199.986038 350.989655,199.171005 360.409149,198.284576 
	C373.713928,197.032562 386.810211,195.239212 398.670502,188.296143 
	C399.969055,187.535980 402.656830,188.437698 404.345642,189.279785 
	C405.704651,189.957413 406.674225,191.616577 407.563354,193.002686 
	C412.183533,200.205322 411.396851,203.049347 403.490204,205.960541 
	C381.847626,213.929230 359.328705,218.129059 336.529175,220.940796 
	C325.186981,222.339554 313.799988,223.375214 301.195648,224.705765 
	C302.621063,219.544647 303.739441,215.495285 304.955994,211.066620 
z"/>
<path fill="#F2F2F2" opacity="1.000000" stroke="none" 
	d="
M258.937531,213.855957 
	C261.046082,199.868149 263.064087,186.274597 265.169128,172.094772 
	C278.388580,177.532883 292.255127,183.237183 306.411804,189.060822 
	C298.859070,199.011429 295.448883,210.053970 292.966705,221.514099 
	C292.678925,222.842651 291.024353,224.862259 289.967041,224.885223 
	C278.674805,225.130615 267.375214,225.037750 255.129761,225.037750 
	C256.540375,220.944107 257.693665,217.597168 258.937531,213.855957 
z"/>
<path fill="#DEDEDE" opacity="1.000000" stroke="none" 
	d="
M415.380768,215.153381 
	C398.843079,223.729187 381.186218,227.104935 363.438110,230.004623 
	C309.364868,238.839111 254.888260,238.305527 200.424088,236.117416 
	C149.481171,234.070755 98.774834,228.909821 48.220039,222.326859 
	C40.858894,221.368317 33.511108,220.307190 26.157139,219.293549 
	C26.120434,218.661682 26.083727,218.029831 26.047022,217.397980 
	C27.307220,217.101883 28.611935,216.424667 29.821056,216.565887 
	C54.790127,219.482239 79.706779,222.908310 104.716698,225.402267 
	C171.738968,232.085632 238.891876,236.511230 306.277191,232.721375 
	C339.594635,230.847565 372.502747,225.928329 404.246094,214.994156 
	C407.072113,214.020721 409.760315,212.630508 412.609283,211.745270 
	C415.351074,210.893326 416.983368,211.629272 415.380768,215.153381 
z"/>
<path fill="#ECECEC" opacity="1.000000" stroke="none" 
	d="
M173.132690,25.084980 
	C178.802216,29.553877 183.142105,34.470020 183.838486,41.859783 
	C177.230118,32.401985 168.082962,31.256155 158.433090,34.621975 
	C135.560593,42.599777 112.766327,50.839016 90.189247,59.612789 
	C76.577011,64.902695 63.433182,71.397224 50.072914,77.337059 
	C48.267712,78.139633 46.427658,78.863800 43.057999,80.268761 
	C45.202618,72.763535 46.544968,66.290276 49.045795,60.300732 
	C49.893135,58.271320 53.530884,56.692478 56.128620,56.230770 
	C68.074730,54.107536 80.127861,52.594883 92.097610,50.594055 
	C108.464645,47.858204 123.674995,41.739143 138.680878,34.804123 
	C146.926498,30.993380 155.729477,28.337900 164.400177,25.528873 
	C166.973267,24.695274 169.950867,25.110249 173.132690,25.084980 
z"/>
<path fill="#ECECEC" opacity="1.000000" stroke="none" 
	d="
M191.007385,72.224571 
	C191.988968,74.745949 192.518387,77.183754 193.937805,78.874268 
	C198.183426,83.930717 198.217148,87.925781 193.682068,92.589401 
	C187.994217,98.438530 182.398346,104.377007 176.740845,110.255798 
	C174.929230,112.138283 173.939804,114.012253 176.205734,116.253777 
	C178.291153,118.316727 180.382477,118.039062 182.360794,116.220245 
	C187.747589,111.267685 193.079254,106.255142 198.866287,100.862366 
	C201.931534,106.086487 204.921631,111.182495 207.866791,116.201942 
	C204.237823,121.997421 199.714935,125.155434 192.552612,123.910248 
	C187.829910,123.089180 182.925583,123.275070 178.099335,123.099045 
	C174.182205,122.956177 171.675156,121.227402 171.562988,117.139259 
	C171.357574,109.652954 171.257660,102.160538 171.344574,94.673347 
	C171.356018,93.687202 172.528229,92.399269 173.501068,91.801834 
	C175.902939,90.326767 178.383652,88.797401 181.043701,87.961044 
	C187.869324,85.815002 190.268295,81.385696 189.190796,74.484703 
	C188.783905,71.878716 189.130356,71.824623 191.007385,72.224571 
z"/>
<path fill="#EDEDED" opacity="1.000000" stroke="none" 
	d="
M113.568245,132.309631 
	C112.249329,132.495987 111.299423,132.581573 110.349518,132.667175 
	C109.997147,132.299042 109.644768,131.930893 109.292397,131.562759 
	C112.796478,127.513412 115.577644,122.261696 119.939560,119.639091 
	C133.279068,111.618721 147.226257,104.609055 162.231995,96.507057 
	C162.231995,102.115509 162.379379,106.183868 162.127182,110.227295 
	C162.065033,111.223862 160.898468,112.603256 159.907761,113.022560 
	C144.616577,119.494362 129.270554,125.836601 113.568245,132.309631 
z"/>
<path fill="#EAEAEA" opacity="1.000000" stroke="none" 
	d="
M372.833313,184.493195 
	C376.407410,184.506149 379.505890,184.506149 382.604340,184.506149 
	C382.650421,185.144257 382.696503,185.782379 382.742584,186.420486 
	C374.070526,187.559128 365.428040,189.161575 356.718781,189.717545 
	C346.125458,190.393799 336.479523,193.057693 327.899841,199.481506 
	C326.366852,200.629272 324.079895,200.770020 322.141052,201.375732 
	C321.564575,199.272202 320.471375,197.158371 320.513062,195.067169 
	C320.618347,189.780548 321.233856,184.504089 321.587494,179.961395 
	C338.835175,181.496536 355.596436,182.988373 372.833313,184.493195 
z"/>
<path fill="#E7E7E7" opacity="1.000000" stroke="none" 
	d="
M279.392273,156.674011 
	C282.086426,158.341507 284.481018,159.812347 286.868042,161.278519 
	C282.337219,169.421021 279.789581,169.612656 266.458923,162.589676 
	C267.810638,161.126663 269.111969,159.790359 270.329041,158.381256 
	C271.630402,156.874557 272.852295,155.299240 274.143036,153.711899 
	C276.257324,154.893173 277.675018,155.685257 279.392273,156.674011 
z"/>
<path fill="#EBEBEB" opacity="1.000000" stroke="none" 
	d="
M260.870270,145.113678 
	C263.112701,146.544617 265.021851,147.796371 267.742310,149.580063 
	C264.970032,152.035477 262.798370,154.335190 260.245148,156.074860 
	C258.785675,157.069275 256.233643,158.054260 255.021225,157.420898 
	C253.441925,156.595886 252.058304,154.268234 251.747620,152.395279 
	C251.221939,149.226151 251.603241,145.906586 251.603241,141.510925 
	C255.196609,142.887970 257.866821,143.911240 260.870270,145.113678 
z"/>
<path fill="#E8E8E8" opacity="1.000000" stroke="none" 
	d="
M290.751892,172.827713 
	C294.832245,166.644440 295.246979,166.594009 301.166656,170.058456 
	C303.732605,171.560165 306.333832,173.183945 309.135803,174.055252 
	C312.909363,175.228699 313.669250,177.423981 312.321259,181.873047 
	C305.177795,178.922928 298.121643,176.008865 290.751892,172.827713 
z"/>
<path fill="#E2E2E2" opacity="1.000000" stroke="none" 
	d="
M220.091553,133.910278 
	C216.919403,131.559723 214.033249,129.428848 210.764069,127.015213 
	C212.472076,125.433029 213.868225,124.139740 215.372192,122.746567 
	C220.638245,126.071671 225.643555,129.232147 231.332825,132.824478 
	C229.093475,134.723938 227.159821,136.364105 225.053970,138.150299 
	C223.604568,136.904251 221.991058,135.517105 220.091553,133.910278 
z"/>
<path fill="#ECECEC" opacity="1.000000" stroke="none" 
	d="
M183.251541,69.084366 
	C181.995819,69.349419 181.113068,69.864296 180.404190,69.686378 
	C178.850327,69.296349 177.384552,68.555283 175.882812,67.957558 
	C176.956772,66.899605 177.868561,65.220573 179.132584,64.890541 
	C184.795807,63.411869 189.525742,61.505005 187.217682,53.576130 
	C191.598465,59.132828 189.460373,65.045425 190.103073,70.734886 
	C187.815948,70.122009 185.759659,69.570992 183.251541,69.084366 
z"/>
<path fill="#E5E5E5" opacity="1.000000" stroke="none" 
	d="
M241.348114,139.516296 
	C241.892960,140.736603 242.332474,141.669418 242.378326,142.621170 
	C242.488480,144.907822 242.413956,147.203339 242.413956,150.744385 
	C238.750793,148.321945 235.991089,146.496964 231.755341,143.695877 
	C235.503433,141.900650 238.283600,140.569016 241.348114,139.516296 
z"/>
<path fill="#F2F2F2" opacity="1.000000" stroke="none" 
	d="
M101.352722,171.323822 
	C101.640068,171.339798 101.700287,171.557297 101.760513,171.774811 
	C101.548874,171.691666 101.337234,171.608521 101.352722,171.323822 
z"/>
<path fill="#060606" opacity="1.000000" stroke="none" 
	d="
M94.878113,107.984390 
	C86.107056,109.072540 77.746445,110.094414 69.385826,111.116287 
	C69.178391,110.540825 68.970955,109.965355 68.763519,109.389893 
	C72.914024,106.698029 77.064529,104.006172 81.686043,101.008842 
	C79.606674,99.507156 77.824455,98.220070 77.009132,97.631264 
	C80.466675,93.453537 84.066673,89.604858 87.081650,85.342377 
	C91.522522,79.064018 97.693916,76.693550 104.980019,76.028305 
	C109.206963,75.642372 113.395676,74.837639 118.349960,74.111710 
	C118.573708,75.336021 118.939606,77.338158 119.434563,80.046501 
	C123.734116,77.534607 127.871666,75.117363 132.390427,72.477402 
	C128.727524,87.674919 112.606842,102.855225 94.878113,107.984390 
z"/>
</svg>