<svg version="1.1" id="Layer_1" xmlns="http://www.w3.org/2000/svg" xmlns:xlink="http://www.w3.org/1999/xlink" x="0px" y="0px"
	 width="100%" viewBox="0 0 1280 1067" enable-background="new 0 0 1280 1067" xml:space="preserve">
<path fill="none" opacity="1.000000" stroke="#000000" stroke-linecap="round" stroke-linejoin="round" stroke-width="5.000000"
	d="
M1126.500000,578.000000 
	C1126.564331,583.192444 1123.994263,586.422119 1119.572510,589.118958 
	C1114.102661,592.455139 1109.185669,596.692566 1103.994507,600.492554 
	C1099.086548,604.085266 1093.056763,604.718445 1087.478516,606.429810 
	C1065.672363,613.119507 1043.715820,619.341309 1021.465576,624.346924 
	C1013.513855,626.135742 1005.177185,626.292053 996.998047,626.976379 
	C973.033569,628.981384 949.000549,628.069824 925.002930,628.625732 
	C905.653931,629.074036 887.171875,634.159119 869.511292,642.025391 
	C856.559753,647.794250 843.313843,652.713806 828.998657,652.821899 
	C822.506592,652.870972 815.991333,651.052734 809.501709,649.989502 
	C793.016174,647.288696 776.965515,642.644836 761.075500,637.754761 
	C750.675537,634.554321 741.087341,628.791992 730.980469,624.546509 
	C713.830383,617.342224 697.721436,608.055603 681.009949,599.979431 
	C673.165161,596.188293 664.947327,596.738342 657.031982,598.633667 
	C640.513611,602.589111 624.150024,607.148254 608.478638,613.950745 
	C589.568848,622.158752 570.147949,629.270447 551.605164,638.217957 
	C535.104370,646.180115 519.465942,655.940796 503.555725,665.096802 
	C502.058807,665.958313 500.042908,666.876221 499.500000,669.000000 
"/>
<path fill="none" opacity="1.000000" stroke="#000000" stroke-linecap="round" stroke-linejoin="round" stroke-width="7.000000"
	d="
M527.000000,680.500000 
	C521.655762,675.993164 514.717590,675.657288 508.477631,673.566772 
	C488.537903,666.886780 468.311218,661.021973 448.545319,653.874573 
	C420.596588,643.768311 391.836609,636.862244 363.029694,629.877563 
	C332.067596,622.370361 300.858185,615.956665 269.967804,608.126953 
	C251.871979,603.540344 233.606216,599.596375 215.466568,595.135986 
	C206.827713,593.011780 197.813126,592.453308 189.004898,590.970947 
	C176.818741,588.920105 164.678070,586.599304 152.493851,584.536255 
	C148.199005,583.809082 143.834946,583.102051 139.499664,583.084412 
	C130.997665,583.049866 122.484268,582.497986 113.981018,583.883484 
	C110.446800,584.459351 108.023537,586.734497 105.051399,588.110962 
	C102.631813,589.231506 100.701813,591.381531 98.493980,592.991760 
	C88.674034,600.153320 85.159241,599.983032 76.500000,592.000000 
"/>
<path fill="none" opacity="1.000000" stroke="#000000" stroke-linecap="round" stroke-linejoin="round" stroke-width="7.000000"
	d="
M69.000000,634.500000 
	C71.174576,634.301697 73.277870,634.786072 74.974907,636.034119 
	C84.243179,642.849976 95.356018,644.841919 106.010895,647.962830 
	C122.734383,652.861206 140.061279,655.035217 157.029587,658.869019 
	C164.855988,660.637390 173.013428,660.904358 180.996368,662.025818 
	C189.679001,663.245483 198.294983,665.098938 207.011353,665.872070 
	C214.906525,666.572327 222.685974,667.886414 230.492722,669.048828 
	C245.018097,671.211792 259.559387,673.353760 273.982788,676.090698 
	C287.563049,678.667725 300.939209,682.315735 314.513733,684.928711 
	C337.005371,689.258362 359.287109,694.476562 381.491547,700.033813 
	C404.862610,705.882935 428.151428,712.060852 451.523224,717.907166 
	C453.899048,718.501404 455.850586,719.298828 457.500000,721.000000 
"/>
<path fill="none" opacity="1.000000" stroke="#000000" stroke-linecap="round" stroke-linejoin="round" stroke-width="7.000000"
	d="
M393.500000,768.000000 
	C388.424805,764.152893 382.300079,764.594910 376.494659,764.057739 
	C363.678497,762.871948 350.847595,761.549133 337.995483,761.143188 
	C327.782104,760.820618 317.666382,759.666199 307.502136,758.968811 
	C299.328827,758.408020 291.134613,757.721436 283.026886,756.770752 
	C275.695160,755.911011 268.300415,755.314209 260.964630,754.242126 
	C250.466171,752.707764 240.890305,748.736633 230.990707,745.528687 
	C218.854095,741.595825 207.512970,735.850037 196.012817,730.472595 
	C185.243088,725.436523 174.465012,720.810181 162.527283,718.835083 
	C150.693069,716.877075 140.185684,710.615906 129.017090,706.454102 
	C112.950211,700.466980 97.041267,694.055054 80.959488,688.109558 
	C78.274536,687.116943 76.064835,685.680054 74.058189,683.933167 
	C72.093742,682.222900 70.065765,681.135254 67.500000,681.000000 
"/>
<path fill="none" opacity="1.000000" stroke="#000000" stroke-linecap="round" stroke-linejoin="round" stroke-width="7.000000"
	d="
M170.500000,258.500000 
	C178.458740,260.119019 186.378326,261.604126 193.083710,266.893890 
	C195.813278,269.047211 197.916061,271.597015 198.884140,274.538147 
	C204.376190,291.223785 212.341431,306.851410 220.326340,322.331665 
	C224.592606,330.602661 230.920090,338.040985 240.909302,341.744629 
	C251.560364,345.693604 262.235596,348.675690 273.502167,348.880768 
	C280.823975,349.014008 288.172424,348.072021 295.498749,347.484375 
	C309.003632,346.401062 322.257690,343.878052 335.527832,341.134613 
	C353.812500,337.354523 370.298767,329.812897 386.047119,320.076202 
	C394.260559,314.998077 402.981201,310.658936 412.513000,308.558960 
	C420.616760,306.773560 428.863037,305.642578 436.989441,303.949310 
	C442.313416,302.839996 447.649872,303.104462 452.999207,302.968475 
	C455.259857,302.911011 457.403473,303.210785 459.500000,304.000000 
"/>
<path fill="none" opacity="1.000000" stroke="#000000" stroke-linecap="round" stroke-linejoin="round" stroke-width="7.000000"
	d="
M975.000000,720.500000 
	C954.838501,703.756714 933.051453,689.499756 909.469482,678.062866 
	C904.684937,675.742554 899.184143,675.763245 893.988770,675.086304 
	C879.976257,673.260559 866.009644,674.850769 851.986206,675.795654 
	C840.086975,676.597412 829.960083,682.247559 819.040649,685.631104 
	C787.425903,695.427429 756.031555,705.933533 724.457581,715.865173 
	C720.770020,717.025085 716.500610,716.349854 712.499695,716.491394 
	C711.001587,716.544373 708.924805,715.860962 708.096191,716.606812 
	C703.704346,720.559937 700.927063,717.458557 698.557983,714.454285 
	C691.562256,705.582336 684.993347,696.372559 677.955811,687.535156 
	C670.632019,678.338135 661.381653,671.027832 652.307678,663.739441 
	C649.002686,661.084961 643.555908,660.841003 638.990173,660.057373 
	C620.931580,656.958130 602.688904,656.452026 584.515686,658.166199 
	C573.332520,659.221008 562.902832,663.563049 552.981689,668.966309 
	C544.861694,673.388550 536.953247,678.065552 528.189148,681.484863 
	C523.467102,683.327148 518.973877,687.514526 513.985962,689.971497 
	C496.948303,698.363953 480.434235,707.700073 464.538635,718.059265 
	C447.035797,729.465881 429.733337,741.189087 412.563110,753.091003 
	C407.650757,756.496094 403.275452,760.782776 399.101654,765.098267 
	C397.218719,767.045044 394.405151,767.255554 392.887848,769.936523 
	C388.993408,776.817688 394.284515,786.340698 402.490875,788.043945 
	C416.196442,790.888489 430.131653,791.047913 444.000946,791.986206 
	C465.670044,793.452087 487.374176,794.289490 509.008087,796.417908 
	C529.804077,798.464050 550.673218,799.756348 571.498047,801.523132 
	C589.840698,803.079285 608.164612,804.856445 626.500610,806.492859 
	C641.830872,807.861023 657.163757,809.202515 672.502930,810.464233 
	C675.020142,810.671326 677.632446,810.826599 680.000000,809.500000 
"/>
<path fill="none" opacity="1.000000" stroke="#000000" stroke-linecap="round" stroke-linejoin="round" stroke-width="7.000000"
	d="
M705.000000,719.000000 
	C705.848450,723.775635 709.330627,725.979858 713.512207,726.947144 
	C730.455750,730.866455 747.403442,734.755127 764.477112,738.116211 
	C774.104309,740.011475 783.780396,740.996765 793.492737,742.065857 
	C806.189087,743.463440 818.816528,745.477661 831.505249,746.955139 
	C841.979614,748.174866 852.549988,748.642151 862.985962,750.100403 
	C873.474976,751.566040 884.043884,752.222717 894.528564,753.811462 
	C900.947205,754.784058 907.512024,755.334900 914.011597,755.854614 
	C921.145874,756.425049 928.245972,757.510925 935.508545,757.199951 
	C939.935608,757.010376 943.938538,755.746826 947.412292,753.840210 
	C957.395447,748.361023 965.883240,741.119629 971.029297,730.514221 
	C980.681946,710.621094 998.480103,700.672363 1018.065979,693.684937 
	C1029.580566,689.576965 1041.754395,687.446594 1053.989380,685.915588 
	C1067.418701,684.235168 1080.529297,680.739319 1093.471802,676.904968 
	C1112.420166,671.291504 1131.399414,665.736572 1150.013916,659.038696 
	C1153.838013,657.662720 1157.343018,655.635986 1161.058838,654.146667 
	C1163.759888,653.064209 1163.965942,650.809692 1164.922974,648.960144 
	C1166.500854,645.910828 1167.872559,642.821045 1171.000000,641.000000 
"/>
<path fill="none" opacity="1.000000" stroke="#000000" stroke-linecap="round" stroke-linejoin="round" stroke-width="9.000000"
	d="
M923.000000,531.500000 
	C919.389038,524.259094 911.692932,522.914795 905.403625,519.687805 
	C904.012512,518.973999 902.386230,518.379578 901.009521,517.485291 
	C889.450928,509.977570 877.830139,502.536377 864.476318,498.579956 
	C859.959229,497.241669 855.157959,496.878723 850.502991,495.984497 
	C847.243164,495.358276 844.808716,494.047272 844.952942,489.998322 
	C845.170166,483.902740 842.665833,479.359039 837.048096,476.408386 
	C834.595215,475.120026 832.681702,472.815216 830.496033,471.004791 
	C828.031555,468.963470 825.535095,467.264557 821.996704,467.430054 
	C817.747253,467.628784 814.227783,465.016724 810.551514,463.384003 
	C806.474670,461.573395 802.282532,460.535339 798.016663,459.435394 
	C787.133362,456.629272 776.424561,453.079620 765.456970,450.698242 
	C760.794373,449.685852 757.130920,448.064087 753.391235,445.139038 
	C747.561157,440.578918 740.302673,439.171844 732.999268,438.507751 
	C728.652832,438.112549 724.079773,438.578766 720.072632,436.833221 
	C718.009094,435.934296 715.731262,434.600372 714.818909,431.554230 
	C713.786560,428.107300 709.978455,426.761780 706.989380,425.018188 
	C702.864990,422.612366 698.711731,420.246674 694.476013,418.046173 
	C692.958984,417.258057 691.083191,416.387726 689.513855,416.601746 
	C680.872070,417.780365 676.607422,412.276489 673.082642,405.953949 
	C671.336853,402.822449 669.121643,400.718811 666.053101,398.909943 
	C660.067688,395.381653 654.298035,391.481659 647.988708,388.524109 
	C646.229431,387.699432 644.281677,386.492218 642.509766,386.627808 
	C637.412048,387.017975 633.169189,383.866211 631.333069,380.800507 
	C627.202698,373.904053 621.387451,370.051392 614.518799,366.958282 
	C613.369629,366.440796 612.468201,365.373108 611.482666,364.583923 
	C615.633423,344.504089 609.151367,334.208984 590.908569,322.138214 
	C587.502136,319.884308 585.454651,316.816315 583.068848,313.942841 
	C575.895020,305.302643 569.429993,296.024017 560.479675,289.026001 
	C554.324951,284.213837 546.786011,281.449829 540.643127,276.810486 
	C533.733276,271.591919 526.195801,269.401245 517.992554,268.573578 
	C515.463257,268.318359 514.459473,266.651947 513.543884,264.976044 
	C504.308563,248.072098 491.468109,233.778030 479.950287,218.537582 
	C472.748718,209.008438 465.253448,199.719421 458.942291,189.535767 
	C456.442688,185.502380 453.409790,181.701797 448.982544,179.535675 
	C445.711121,177.935089 446.122101,174.591232 445.040161,171.983337 
	C443.174805,167.487000 442.592499,162.442841 438.547241,158.945343 
	C436.567169,157.233398 434.477051,156.796600 432.011230,156.425400 
	C419.331940,154.516693 409.484894,159.925446 400.487762,167.986328 
	C384.262360,182.523300 368.840057,197.764725 355.885010,215.415604 
	C352.474335,220.062561 348.658295,224.500183 344.935638,228.946106 
	C337.043610,238.371460 331.438812,249.107910 325.949005,259.974243 
	C323.931702,263.967224 321.846527,268.127045 318.900635,271.410889 
	C311.087341,280.120514 308.446686,291.240601 304.128845,301.553955 
	C302.827423,304.662537 301.037231,307.538635 300.000000,310.750000 
"/>
<path fill="none" opacity="1.000000" stroke="#000000" stroke-linecap="round" stroke-linejoin="round" stroke-width="5.000000"
	d="
M371.500000,472.000000 
	C375.144348,465.647949 375.401947,458.305511 377.422852,451.477173 
	C379.312958,445.090698 381.504669,438.734741 382.008301,432.000610 
	C382.238098,428.928467 385.169739,428.817078 387.041229,428.108917 
	C393.097504,425.817230 399.273499,423.778046 405.524902,422.092346 
	C408.716095,421.231842 412.162476,421.124847 415.501160,421.057953 
	C418.917725,420.989471 421.312744,419.180786 422.346832,416.442169 
	C423.260559,414.022400 422.233551,411.505493 420.052582,409.444366 
	C415.871521,405.493164 411.244751,402.179352 406.490509,399.014282 
	C403.206543,396.828003 398.994354,397.249817 396.650787,399.182800 
	C388.226562,406.131165 378.077637,409.602875 368.427216,413.833984 
	C347.454285,423.029327 328.309814,435.181305 309.502350,448.003418 
	C299.720093,454.672546 289.278015,460.411346 280.503143,468.503418 
	C277.816132,470.981323 274.939453,473.301910 272.549622,476.043243 
	C268.232971,480.994965 270.215027,488.094879 276.513123,489.955566 
	C297.302856,496.097626 318.385345,501.119873 339.503326,505.985504 
	C343.962891,507.013000 348.551422,507.223358 353.066406,508.189758 
	C357.261810,509.087708 361.979218,507.811981 365.568390,504.065521 
	C370.616760,498.795990 374.560760,492.796692 377.853485,486.424286 
	C379.091492,484.028351 380.867767,479.987396 377.429871,478.129822 
	C367.861084,472.959503 363.964355,463.493652 358.807648,454.965149 
	C357.516510,452.829712 358.436340,450.047424 359.158295,448.057434 
	C361.109619,442.678925 364.343842,437.865753 369.542511,435.079285 
	C373.098663,433.173187 376.784729,431.235229 381.000000,431.000000 
"/>
<path fill="none" opacity="1.000000" stroke="#000000" stroke-linecap="round" stroke-linejoin="round" stroke-width="7.000000"
	d="
M608.000000,379.500000 
	C608.850769,371.633911 602.848511,368.085754 597.957520,364.051483 
	C590.528381,357.923584 582.749329,352.217133 577.943542,343.531219 
	C577.536438,342.795410 576.354675,342.459412 575.496338,342.006958 
	C571.671509,339.990875 567.718872,338.186584 564.042175,335.931274 
	C561.770874,334.538116 559.879395,334.364197 557.476440,335.447784 
	C554.237976,336.908173 550.807007,335.341461 547.506165,335.583740 
	C542.509216,335.950439 541.720642,332.064270 540.000488,328.999725 
	C532.414795,315.485504 521.199036,305.704681 507.974121,298.044647 
	C506.269775,297.057495 504.318817,296.081604 503.602875,294.454742 
	C501.511322,289.701965 496.857513,289.094604 492.948578,287.637970 
	C489.512451,286.357574 485.863953,285.687592 482.465546,284.072479 
	C478.874481,282.365875 475.107971,284.050293 472.966583,287.479126 
	C471.647095,289.591858 470.075958,291.562622 468.487335,293.489532 
	C460.031738,303.745636 454.279907,315.793945 446.543854,326.531586 
	C444.271057,329.686279 441.739685,331.850647 438.081879,333.665070 
	C407.749023,348.711792 377.161377,363.218201 348.406738,381.352112 
	C316.983459,401.169006 284.692810,419.605621 253.072754,439.117889 
	C241.289658,446.389069 230.609100,455.432007 218.928711,462.888306 
	C205.009369,471.773834 192.914230,482.889069 180.023087,493.029358 
	C178.231766,494.438477 176.508041,496.090942 176.019791,498.503998 
	C175.777939,499.699310 175.232468,500.254395 174.000000,500.000000 
"/>
<path fill="none" opacity="1.000000" stroke="#000000" stroke-linecap="round" stroke-linejoin="round" stroke-width="9.000000"
	d="
M473.500000,285.000000 
	C471.309509,283.172699 468.701263,283.183746 466.006622,282.929718 
	C451.778687,281.588440 438.262268,285.961487 424.533630,288.205780 
	C414.694000,289.814301 405.145630,293.260925 395.516418,296.056580 
	C393.404144,296.669861 391.384705,297.822083 389.519806,299.030579 
	C381.140991,304.460388 372.916962,310.132385 364.476685,315.463074 
	C355.904114,320.877289 346.208771,323.545471 336.490326,325.961090 
	C327.702789,328.145355 318.919952,330.667206 309.977692,331.828064 
	C299.238770,333.222198 288.273438,334.355865 277.516083,333.725525 
	C265.680878,333.032043 254.456100,329.033783 245.505341,320.494415 
	C239.141266,314.422852 236.419785,306.186340 233.131424,298.444183 
	C229.390686,289.636932 225.848450,280.779388 221.012146,272.492920 
	C217.664139,266.756439 213.867828,260.871185 207.888947,258.253662 
	C201.009048,255.241714 199.340591,250.017395 199.638443,244.006866 
	C200.409225,228.452423 190.195282,219.154434 180.265213,210.262192 
	C175.544174,206.034561 167.898041,206.935349 161.510574,207.601349 
	C146.496674,209.166809 137.425934,218.682770 130.921539,231.460068 
	C129.781723,233.699158 129.842499,235.860870 130.071564,237.992310 
	C130.859879,245.327286 130.076202,252.681625 130.540634,259.997406 
	C132.129929,285.031189 128.898239,309.979279 129.286392,335.003326 
	C129.376480,340.811340 134.742386,346.026459 130.971466,351.981934 
	C127.747261,357.073944 126.789726,362.934479 125.038994,368.512238 
	C118.312485,389.942657 113.116531,411.832581 105.522392,433.008026 
	C96.057770,459.399048 89.366684,486.629272 81.671638,513.549072 
	C80.243362,518.545715 79.483475,523.964417 80.238907,529.535400 
	C80.595093,532.162231 78.645912,535.515747 76.893257,537.922302 
	C73.890396,542.045532 73.717339,546.083435 74.325241,551.021484 
	C75.712036,562.286682 76.210892,573.663696 76.971626,585.001892 
	C77.185234,588.185486 76.191498,590.817749 74.151535,593.610657 
	C70.150017,599.089172 69.075417,605.803284 68.500740,612.500061 
	C67.086693,628.978088 67.527435,645.495422 67.538551,662.000000 
	C67.542824,668.344177 65.828018,674.570740 66.768898,681.033630 
	C67.026428,682.802612 65.748856,685.230896 65.410789,687.486633 
	C63.221500,702.094543 69.203247,712.981689 80.510056,721.486633 
	C96.370140,733.416687 113.900963,742.149353 132.475266,749.066406 
	C155.456085,757.624329 179.323700,761.971619 203.503998,764.967712 
	C220.983459,767.133484 238.461395,769.660461 256.018311,770.686707 
	C263.416656,771.119202 270.272064,773.359924 277.495422,774.048157 
	C297.008820,775.907532 316.511932,777.891541 335.995880,780.037476 
	C349.350739,781.508423 362.662872,783.364624 376.002411,784.980225 
	C379.820099,785.442688 383.676361,785.583435 387.496552,786.029480 
	C390.025085,786.324646 392.097534,785.525330 394.000000,784.000000 
"/>
<path fill="none" opacity="1.000000" stroke="#000000" stroke-linecap="round" stroke-linejoin="round" stroke-width="7.000000"
	d="
M176.000000,500.500000 
	C186.982681,506.018250 198.387787,510.545593 210.017181,514.448792 
	C222.608017,518.674744 235.212952,522.950134 248.032593,526.378113 
	C261.888641,530.083130 276.001831,532.825195 289.999481,536.002319 
	C303.168610,538.991455 316.243164,542.511902 329.526123,544.851685 
	C342.056915,547.058960 354.434448,550.021362 367.006165,551.960083 
	C367.986877,552.111328 368.738831,552.692322 369.525818,552.904114 
	C378.955872,555.442139 381.496216,554.503845 386.989136,546.492554 
	C397.027222,531.851990 406.321075,516.628479 417.320343,502.753937 
	C421.991058,496.862244 425.617950,490.438873 429.795166,484.359253 
	C434.076385,478.128265 438.680450,472.072968 442.577148,465.546051 
	C444.561493,462.222260 446.594757,458.667603 450.500000,457.000000 
"/>
<path fill="none" opacity="1.000000" stroke="#000000" stroke-linecap="round" stroke-linejoin="round" stroke-width="7.000000"
	d="
M247.000000,688.000000 
	C260.591125,688.928528 274.102875,690.015686 287.546783,692.771851 
	C298.635559,695.045166 309.855347,696.902832 320.984711,699.078308 
	C332.337860,701.297485 343.680786,703.717468 355.043060,705.760620 
	C369.130310,708.293762 382.476471,713.404846 396.467224,716.166077 
	C400.856598,717.032288 403.901489,721.023438 405.904388,725.047607 
	C407.229675,727.710205 404.547272,730.988464 400.503357,730.877808 
	C390.837006,730.613098 381.162109,731.993958 371.477661,730.115173 
	C364.928162,728.844482 358.162506,728.705261 351.500885,727.991638 
	C339.331085,726.687744 327.190002,725.018188 314.991516,724.114685 
	C307.308411,723.545532 299.642242,722.971008 291.998047,722.015564 
	C284.816071,721.117798 277.638550,720.258484 270.481384,719.116760 
	C263.902374,718.067322 257.173981,717.777954 250.498108,717.557373 
	C242.530136,717.294067 235.442719,710.421753 238.500702,701.000244 
	C239.412827,698.189941 239.756577,695.261414 240.850967,692.442139 
	C241.895569,689.751160 242.978088,687.994202 246.000000,688.000000 
"/>
<path fill="none" opacity="1.000000" stroke="#000000" stroke-linecap="round" stroke-linejoin="round" stroke-width="9.000000"
	d="
M885.500000,509.000000 
	C883.070435,511.608246 885.713623,515.343750 883.496582,518.230957 
	C887.684692,520.607300 892.683716,521.066589 897.114685,523.269348 
	C900.230225,524.818176 903.572205,526.336975 906.384094,528.177124 
	C913.273315,532.685364 920.361206,533.573181 927.985107,531.446533 
	C931.731689,530.401489 935.017639,531.703979 938.508118,532.462524 
	C953.540405,535.729553 967.809143,541.394287 981.906128,547.226929 
	C991.231079,551.085205 1001.011108,552.329712 1010.539978,554.848877 
	C1023.546631,558.287476 1036.894409,560.413757 1049.983154,563.570007 
	C1063.502441,566.830078 1077.318604,567.923401 1090.990723,570.059570 
	C1106.122192,572.423706 1121.494019,573.725769 1135.581177,580.839172 
	C1139.515137,582.825623 1142.072876,585.382324 1143.996094,589.002075 
	C1152.671509,605.330688 1161.406616,621.628601 1169.932983,638.034790 
	C1171.486450,641.023682 1173.864990,643.112366 1176.015991,645.485535 
	C1177.218140,646.811829 1178.684082,647.981201 1178.488403,649.998901 
	C1177.372925,661.496704 1181.179321,672.200378 1184.111572,682.969604 
	C1186.293701,690.983521 1184.648682,699.032776 1185.544312,706.994995 
	C1187.499512,724.375183 1179.344727,738.061768 1170.075562,751.551880 
	C1165.493530,758.220337 1159.828003,763.127502 1152.531128,766.565979 
	C1143.567627,770.789734 1134.546021,775.024597 1126.083984,780.138855 
	C1118.230835,784.885071 1109.334473,785.431763 1100.945801,787.808899 
	C1087.816650,791.529480 1074.217407,793.566284 1061.024780,797.092834 
	C1035.736328,803.852356 1010.061951,807.993652 984.002441,810.031006 
	C980.484863,810.306091 977.011108,811.105713 973.497437,811.475464 
	C968.084045,812.045166 965.822021,810.695740 965.130310,805.482727 
	C964.669067,802.007141 963.079651,799.482117 961.000000,797.000000 
"/>
<path fill="none" opacity="1.000000" stroke="#000000" stroke-linecap="round" stroke-linejoin="round" stroke-width="3.000000"
	d="
M1184.500000,702.500000 
	C1182.357910,702.431824 1180.402100,702.593933 1178.468628,703.955566 
	C1162.098022,715.484741 1143.903442,722.750305 1124.524658,727.598633 
	C1107.065308,731.966736 1089.756714,736.995972 1073.496582,744.993164 
	C1068.858765,747.274231 1066.056519,751.569031 1063.672729,755.602112 
	C1058.218872,764.829590 1052.986084,774.243286 1049.407227,784.467529 
	C1048.341675,787.511292 1045.995483,790.083008 1044.557007,793.027893 
	C1043.507568,795.176514 1042.781006,797.567688 1044.000000,800.000000 
"/>
<path fill="none" opacity="1.000000" stroke="#000000" stroke-linecap="round" stroke-linejoin="round" stroke-width="10.000000"
	d="
M961.250000,789.500000 
	C960.919067,793.029419 961.562988,796.665955 957.585449,799.137512 
	C955.185486,800.628723 954.094299,803.699890 952.925842,806.468689 
	C951.140991,810.697998 948.026733,812.487915 943.005798,812.664490 
	C927.323303,813.216248 911.669373,814.544739 895.999390,815.489746 
	C871.522705,816.965820 847.031860,818.053467 822.500610,817.474365 
	C818.316284,817.375488 815.890808,814.587646 816.500000,811.000000 
"/>
<path fill="none" opacity="1.000000" stroke="#000000" stroke-linecap="round" stroke-linejoin="round" stroke-width="9.000000"
	d="
M815.500000,814.000000 
	C810.436890,818.420227 804.286438,816.981079 798.500549,816.932373 
	C789.831665,816.859375 781.168884,816.254333 772.499573,816.015869 
	C752.500916,815.465759 732.499878,815.005249 712.500488,814.481201 
	C711.663635,814.459229 710.458862,814.027161 710.032532,814.132080 
	C699.933350,816.619019 696.539978,809.519531 692.987854,802.506165 
	C689.343872,795.311401 687.500000,794.605408 679.848267,797.303528 
	C679.157776,803.116699 681.130493,808.738647 681.500000,814.500000 
"/>
<path fill="none" opacity="1.000000" stroke="#000000" stroke-linecap="round" stroke-linejoin="round" stroke-width="5.000000"
	d="
M906.000000,581.500000 
	C902.414978,585.744873 896.742371,585.913269 892.535583,585.567261 
	C886.961731,585.108826 882.230103,587.436340 877.004150,587.618896 
	C873.438965,587.743469 869.935791,588.567322 866.496887,587.006836 
	C866.019531,586.790222 865.314880,586.366638 865.027222,586.544128 
	C858.551147,590.539978 851.305420,587.842712 844.473145,588.810242 
	C839.146729,589.564514 834.115051,586.523682 829.003601,584.988098 
	C817.567017,581.552246 806.695679,576.495972 795.429138,572.710815 
	C776.898743,566.485168 762.029114,553.510437 744.032959,546.416321 
	C732.052185,541.693420 719.933472,538.281433 707.009583,537.364685 
	C699.590515,536.838318 692.304321,537.357117 685.006836,538.070068 
	C678.051514,538.749573 672.173584,542.674133 666.038330,545.580872 
	C652.729126,551.886414 639.499695,558.681458 624.956787,561.255737 
	C615.243591,562.975098 605.018921,563.543030 595.500000,559.000000 
"/>
<path fill="none" opacity="1.000000" stroke="#000000" stroke-linecap="round" stroke-linejoin="round" stroke-width="9.000000"
	d="
M304.500000,331.500000 
	C304.166656,327.833344 303.765961,324.171234 303.516907,320.498840 
	C303.199341,315.815735 302.003845,312.183868 297.084991,309.822906 
	C292.218750,307.487152 288.703094,302.963257 285.029572,298.972778 
	C273.283203,286.212799 261.459991,273.513092 250.080933,260.429626 
	C243.702377,253.095673 235.376328,250.711990 226.500916,248.995300 
	C217.794067,247.311234 209.139618,247.926437 200.500000,249.500000 
"/>
<path fill="none" opacity="1.000000" stroke="#000000" stroke-linecap="round" stroke-linejoin="round" stroke-width="5.000000"
	d="
M134.000000,352.500000 
	C138.088547,356.866425 138.656097,362.626648 139.388290,368.015167 
	C142.970642,394.378967 148.313782,420.311859 157.012650,445.495636 
	C157.887863,448.029480 158.137802,450.605865 158.000000,453.250000 
"/>
<path fill="none" opacity="1.000000" stroke="#000000" stroke-linecap="round" stroke-linejoin="round" stroke-width="4.000000"
	d="
M630.500000,408.000000 
	C627.383789,410.395477 623.531006,411.098145 619.976746,412.438385 
	C616.571899,413.722290 613.678284,415.576416 612.583313,419.026428 
	C611.290222,423.100800 613.489563,427.140961 618.031799,428.383881 
	C622.818604,429.693726 626.986816,431.134735 628.541321,436.488007 
	C629.214172,438.804840 631.100159,440.015259 633.490112,439.457611 
	C639.090027,438.151093 644.848022,438.477722 650.139771,434.695526 
	C658.618286,428.635559 667.866394,429.212463 677.056641,434.399689 
	C681.619873,436.975311 687.212891,435.937347 691.950867,435.188904 
	C697.330383,434.339081 702.497192,434.193542 707.436829,435.706299 
	C710.273926,436.575104 712.233337,436.100250 714.500000,435.000000 
"/>
<path fill="none" opacity="1.000000" stroke="#000000" stroke-linecap="round" stroke-linejoin="round" stroke-width="5.000000"
	d="
M211.500000,466.000000 
	C209.782318,464.027191 207.277328,463.395264 204.988358,463.086273 
	C192.905060,461.455078 181.426178,457.287476 169.519394,454.903168 
	C160.627457,453.122559 151.839340,454.020447 143.002823,454.547394 
	C140.305801,454.708252 139.094162,457.331421 137.558044,459.051819 
	C121.968086,476.512451 109.431160,496.281769 95.509407,515.007019 
	C92.943626,518.458069 90.458900,521.971619 88.013962,525.509644 
	C86.284836,528.011780 83.992699,529.525696 81.000000,530.000000 
"/>
<path fill="none" opacity="1.000000" stroke="#000000" stroke-linecap="round" stroke-linejoin="round" stroke-width="4.000000"
	d="
M630.000000,381.000000 
	C628.633118,381.899384 627.156555,383.146118 625.524048,382.444031 
	C620.830811,380.425507 615.814819,381.917938 610.942566,380.736877 
	C606.377502,379.630310 601.229980,381.134064 596.521729,380.366791 
	C586.996399,378.814484 580.947815,385.796021 573.660645,389.331177 
	C570.524658,390.852570 572.143433,396.520142 572.768066,399.951202 
	C573.343750,403.113831 576.242188,405.951965 580.005249,406.461273 
	C589.709045,407.774628 599.247070,407.972534 609.069519,405.816711 
	C615.195557,404.472198 622.490173,402.263092 628.316345,405.802338 
	C631.817444,407.929138 634.892273,408.337799 638.497437,408.545074 
	C640.019104,408.632568 641.207581,407.996979 642.500000,407.500000 
"/>
<path fill="none" opacity="1.000000" stroke="#000000" stroke-linecap="round" stroke-linejoin="round" stroke-width="5.000000"
	d="
M200.000000,249.500000 
	C193.352158,248.749008 186.754776,247.687363 179.997650,247.936111 
	C172.234283,248.221909 170.347885,250.014954 169.397247,257.486938 
	C168.752396,262.555542 166.891190,267.386169 164.533798,272.017212 
	C156.683777,287.438354 149.470856,303.163025 142.488022,318.994720 
	C139.949844,324.749390 139.567276,331.016693 138.063171,337.015839 
	C137.166580,340.591949 135.972885,343.727539 132.500000,345.500000 
"/>
<path fill="none" opacity="1.000000" stroke="#000000" stroke-linecap="round" stroke-linejoin="round" stroke-width="5.000000"
	d="
M445.500000,181.000000 
	C438.663422,187.686325 430.437653,192.598892 422.890625,198.356659 
	C409.684937,208.431564 397.320312,219.417694 384.974457,230.471481 
	C378.713654,236.077026 372.844421,242.013901 367.465851,248.471558 
	C364.956421,251.484406 365.051117,253.540222 367.901886,256.591644 
	C377.328674,266.681976 386.347809,277.153900 395.487000,287.511444 
	C397.181335,289.431702 398.894531,291.385406 399.500000,294.000000 
"/>
<path fill="none" opacity="1.000000" stroke="#000000" stroke-linecap="round" stroke-linejoin="round" stroke-width="4.000000"
	d="
M677.000000,435.499969 
	C676.666626,435.833313 676.373169,436.400665 675.994080,436.465271 
	C668.840576,437.684113 665.835938,442.922211 663.458496,448.983734 
	C661.519897,453.926514 663.066345,458.700195 666.922180,462.577362 
	C674.181885,469.877228 691.551697,469.801544 698.525391,462.524353 
	C702.833069,458.029236 708.631897,458.778320 713.987854,459.167328 
	C716.455750,459.346527 718.519836,459.237854 720.488647,457.982178 
	C727.224304,453.686340 735.134155,453.852905 742.542175,452.795441 
	C747.254883,452.122681 751.988525,455.206909 756.604492,457.265747 
	C760.574402,459.036407 763.312378,461.201538 765.000000,465.000000 
"/>
<path fill="none" opacity="1.000000" stroke="#000000" stroke-linecap="round" stroke-linejoin="round" stroke-width="5.000000"
	d="
M441.500000,333.000000 
	C443.258575,338.000000 441.606293,343.033875 441.302429,347.987885 
	C441.105621,351.197418 441.515228,353.406830 443.401703,356.069641 
	C450.901886,366.656250 459.912872,375.845032 468.960114,385.039246 
	C470.607025,386.712921 472.364471,387.005157 474.499573,387.032471 
	C479.834198,387.100616 485.166168,387.426849 490.500244,387.454529 
	C492.670563,387.465790 494.423401,388.127289 496.000000,389.500000 
"/>
<path fill="none" opacity="1.000000" stroke="#000000" stroke-linecap="round" stroke-linejoin="round" stroke-width="3.000000"
	d="
M468.000000,239.500000 
	C467.000000,240.740784 465.520996,239.654205 465.071442,239.382019 
	C457.637695,234.881195 450.474579,229.917282 442.921295,225.638947 
	C440.370789,224.194275 439.492096,222.120071 438.568909,219.970413 
	C436.633636,215.464294 433.433563,213.792847 427.496979,214.473557 
	C423.097076,214.978073 422.925598,218.628525 422.672729,221.515137 
	C422.463806,223.900681 419.571228,226.762039 423.446869,229.088516 
	C425.774017,230.485504 428.149323,230.897064 430.484436,230.423279 
	C438.247864,228.848145 443.257172,234.437592 448.899353,237.675385 
	C457.614563,242.676590 465.584930,248.961227 474.072784,254.386124 
	C475.665741,255.404251 476.798187,256.106537 477.009674,257.998932 
	C478.039978,267.218872 484.802887,271.541016 491.992676,275.513245 
	C493.567444,276.383301 495.049622,277.420868 496.440613,278.297028 
	C495.769012,281.655060 495.134521,284.827515 494.500000,288.000000 
"/>
<path fill="none" opacity="1.000000" stroke="#000000" stroke-linecap="round" stroke-linejoin="round" stroke-width="4.000000"
	d="
M553.000000,367.500000 
	C552.556458,372.147858 550.727356,374.668854 545.571472,376.235229 
	C531.000244,380.661835 516.042542,383.524170 501.444275,387.810211 
	C497.761353,388.891541 495.616333,390.938934 493.524109,393.519562 
	C489.493073,398.491608 487.175171,405.118683 482.751862,409.233246 
	C472.964203,418.337799 467.822968,430.528992 459.568268,440.556183 
	C456.347290,444.468811 454.110718,449.077576 452.419312,453.972107 
	C450.850952,458.510834 452.137482,461.526947 456.493042,462.530243 
	C471.344574,465.951294 486.154785,469.551361 501.002655,472.988495 
	C525.963501,478.766724 550.439697,486.283142 574.999084,493.503174 
	C584.204712,496.209473 593.399719,498.951721 602.323242,501.595673 
	C600.937134,512.507324 598.538208,522.822327 595.518799,533.005554 
	C593.748840,538.974976 592.161865,544.998718 590.501587,551.000427 
	C589.306152,555.321289 590.310974,557.194885 594.500000,558.500000 
"/>
<path fill="none" opacity="1.000000" stroke="#000000" stroke-linecap="round" stroke-linejoin="round" stroke-width="5.000000"
	d="
M732.000000,483.500000 
	C730.833374,491.666656 729.479736,499.812073 728.546814,508.005341 
	C727.353821,518.483337 726.500000,529.000000 725.500000,539.500000 
"/>
<path fill="none" opacity="1.000000" stroke="#000000" stroke-linecap="round" stroke-linejoin="round" stroke-width="4.000000"
	d="
M542.500000,337.000000 
	C539.296204,339.631500 535.070251,339.733978 531.473328,341.443909 
	C528.297974,342.953400 527.465271,344.421356 528.483459,348.004700 
	C529.234314,350.647430 529.877319,353.323242 530.491760,356.001892 
	C532.379456,364.231079 532.522888,364.316528 540.999512,364.520447 
	C544.751831,364.610718 548.634583,363.701050 552.043457,366.445984 
	C553.968994,367.996521 556.056641,365.771301 558.552734,366.102081 
	C565.574463,367.032623 572.501221,368.541504 579.476929,369.645630 
	C585.133606,370.540985 589.069153,374.621857 592.000000,379.500000 
"/>
<path fill="none" opacity="1.000000" stroke="#000000" stroke-linecap="round" stroke-linejoin="round" stroke-width="5.000000"
	d="
M817.500000,467.500000 
	C817.604736,470.336975 817.548340,473.159119 817.897766,476.012512 
	C818.284790,479.172546 817.533325,482.032104 815.682190,485.109589 
	C810.967896,492.946869 807.210693,501.356598 802.927734,509.461823 
	C802.526672,510.220764 802.072754,510.753357 802.513367,511.492035 
	C805.091980,515.815125 799.466614,521.990295 805.944702,525.599243 
	C808.773743,527.175293 811.105713,529.725037 813.468750,532.031982 
	C815.616333,534.128540 817.094055,533.422791 819.594604,532.192261 
	C823.399170,530.320007 826.208801,526.330444 831.000000,526.500000 
"/>
<path fill="none" opacity="1.000000" stroke="#000000" stroke-linecap="round" stroke-linejoin="round" stroke-width="4.000000"
	d="
M502.000000,249.000000 
	C495.959961,251.064041 491.080933,247.729446 486.016815,245.462418 
	C483.572968,244.368378 483.558990,241.516647 482.597656,239.454468 
	C481.336914,236.750244 479.722565,234.392685 476.966614,233.618942 
	C474.568939,232.945786 471.658691,231.194336 469.481140,234.487534 
	C467.697571,237.184891 468.070526,239.617523 470.000000,242.000000 
"/>
<path fill="none" opacity="1.000000" stroke="#000000" stroke-linecap="round" stroke-linejoin="round" stroke-width="4.000000"
	d="
M715.500000,460.000000 
	C714.666687,461.166687 714.057739,462.634430 712.962952,463.450287 
	C706.661072,468.146820 706.522583,475.314819 705.572327,482.010254 
	C704.185974,491.778748 710.561523,496.186279 716.966797,498.985504 
	C720.636963,495.760651 722.776672,491.415680 725.506592,487.504608 
	C728.778015,482.817566 736.672668,480.071014 741.974426,482.067841 
	C744.519958,483.026550 745.256409,481.562714 746.543640,480.036804 
	C750.057434,475.871094 753.535400,471.912018 758.351501,468.772247 
	C766.784180,463.274780 775.547363,464.286194 784.491394,465.095367 
	C786.383972,465.266602 788.166687,465.826508 790.000000,465.000000 
"/>
<path fill="none" opacity="1.000000" stroke="#000000" stroke-linecap="round" stroke-linejoin="round" stroke-width="7.000000"
	d="
M502.500000,291.000000 
	C505.166656,289.611847 507.639984,289.491180 510.552765,290.890167 
	C513.651550,292.378418 517.112061,293.526031 520.512573,293.879150 
	C525.880798,294.436646 529.345520,297.919769 532.949341,301.058167 
	C542.720581,309.567261 550.617920,319.790741 558.490723,330.007141 
	C559.383789,331.166046 560.221680,332.396027 560.000000,334.000000 
"/>
<path fill="none" opacity="1.000000" stroke="#000000" stroke-linecap="round" stroke-linejoin="round" stroke-width="5.000000"
	d="
M743.000000,483.000000 
	C743.166687,486.000000 743.225403,489.011169 743.533936,491.996490 
	C743.783691,494.413422 744.933899,495.987701 747.451477,497.108948 
	C752.455994,499.337860 757.492004,500.756165 762.993591,501.102173 
	C767.039490,501.356659 769.309204,497.645264 773.000000,497.500000 
"/>
<path fill="none" opacity="1.000000" stroke="#000000" stroke-linecap="round" stroke-linejoin="round" stroke-width="5.000000"
	d="
M810.000000,464.500000 
	C808.654175,468.904877 804.705994,470.961945 801.444153,473.426056 
	C792.631592,480.083344 782.758850,485.379364 775.491943,493.993225 
	C774.886230,494.711273 773.833374,495.220764 773.562927,496.021271 
	C772.773010,498.359955 777.662903,507.588074 780.002808,508.492706 
	C780.147827,508.548798 780.379272,508.432251 780.493469,508.509674 
	C787.134277,513.014099 794.203552,512.945740 801.500000,510.500000 
"/>
<path fill="none" opacity="1.000000" stroke="#000000" stroke-linecap="round" stroke-linejoin="round" stroke-width="4.000000"
	d="
M640.500000,387.000000 
	C639.926270,392.000000 637.954163,396.375702 640.032104,402.167877 
	C642.310303,408.518311 646.490662,409.091553 651.009094,409.318604 
	C656.893738,409.614288 662.575684,410.620300 667.932678,412.675476 
	C670.654480,413.719696 672.397766,413.004364 674.500000,412.000000 
"/>
<path fill="none" opacity="1.000000" stroke="#000000" stroke-linecap="round" stroke-linejoin="round" stroke-width="5.000000"
	d="
M512.000000,357.000000 
	C513.912842,360.671783 515.760559,364.369049 516.653809,368.728424 
	C514.500366,369.723694 512.571899,371.445679 510.014313,369.975098 
	C508.878967,369.322296 505.103638,360.430542 505.520691,359.509369 
	C506.686768,356.933624 509.378357,357.256744 511.500000,356.500000 
"/>
<path fill="none" opacity="1.000000" stroke="#000000" stroke-linecap="round" stroke-linejoin="round" stroke-width="5.000000"
	d="
M417.500000,421.500000 
	C417.417480,423.922791 417.440857,426.135742 416.144836,428.576904 
	C412.921234,434.648712 410.160614,440.939819 406.065552,446.547882 
	C404.751801,448.347046 403.182648,450.254517 401.436157,450.792877 
	C399.201416,451.481689 398.511353,453.007538 398.077209,454.522125 
	C395.777069,462.546692 389.926331,468.325867 385.491180,474.994141 
	C383.956604,477.301392 381.229431,477.768646 379.000000,479.000000 
"/>
<path fill="none" opacity="1.000000" stroke="#000000" stroke-linecap="round" stroke-linejoin="round" stroke-width="3.000000"
	d="
M516.500000,269.000000 
	C515.390991,271.821808 516.261047,274.216949 517.986084,276.510498 
	C520.210022,279.467407 522.180786,282.626892 524.541870,285.465179 
	C527.021057,288.445465 527.712524,291.483978 526.000000,295.000000 
"/>
<path fill="none" opacity="1.000000" stroke="#000000" stroke-linecap="round" stroke-linejoin="round" stroke-width="5.000000"
	d="
M635.500000,525.000000 
	C640.710022,527.061340 645.920105,529.122742 651.777954,531.440369 
	C647.610901,536.871033 642.039673,539.040100 636.431763,540.780151 
	C635.392761,541.102661 634.308167,541.190247 633.508118,542.007935 
	C629.110352,546.502869 623.609192,548.229919 617.500854,548.517517 
	C616.661499,548.557007 615.560852,548.548279 615.042114,549.044067 
	C609.836060,554.019836 602.847473,554.749634 596.508850,557.024597 
	C596.107544,557.168579 595.833313,557.666687 595.500000,558.000000 
"/>
<path fill="none" opacity="1.000000" stroke="#000000" stroke-linecap="round" stroke-linejoin="round" stroke-width="7.000000"
	d="
M588.000000,321.500000 
	C584.205444,325.818115 583.458191,331.559387 580.984741,336.492371 
	C579.947815,338.560547 579.549744,341.015137 577.500000,342.500000 
"/>
<path fill="none" opacity="1.000000" stroke="#000000" stroke-linecap="round" stroke-linejoin="round" stroke-width="5.000000"
	d="
M638.500000,490.500000 
	C638.022339,493.337006 637.544678,496.173981 636.996948,499.427124 
	C642.664551,500.673828 647.684509,504.243805 654.002319,504.106293 
	C657.618164,504.027618 662.882263,510.205261 663.480530,514.502686 
	C664.527893,522.025269 657.592651,532.025330 651.500000,532.500000 
"/>
<path fill="none" opacity="1.000000" stroke="#000000" stroke-linecap="round" stroke-linejoin="round" stroke-width="5.000000"
	d="
M405.000000,522.500000 
	C407.311615,525.436829 410.939453,525.205811 414.019745,525.914124 
	C434.314850,530.580505 454.800110,534.484131 474.948975,539.697266 
	C486.672150,542.730347 498.427399,545.842163 509.996490,549.511047 
	C523.668640,553.846924 537.726990,555.519592 551.994751,556.341003 
	C562.854431,556.966125 573.694031,558.210754 584.480896,559.643982 
	C587.196167,560.004822 589.009766,559.264465 591.000000,558.000000 
"/>
<path fill="none" opacity="1.000000" stroke="#000000" stroke-linecap="round" stroke-linejoin="round" stroke-width="4.000000"
	d="
M412.000000,512.000000 
	C416.629639,515.349792 422.259216,515.380981 427.514679,516.426147 
	C444.061737,519.716858 460.543488,523.285156 477.015961,526.927917 
	C490.677399,529.948975 504.394287,532.869141 517.932373,536.269287 
	C533.291565,540.126831 548.734436,543.731384 564.017517,547.936401 
	C572.469788,550.261902 581.175232,551.645996 589.500000,554.500000 
"/>
<path fill="none" opacity="1.000000" stroke="#000000" stroke-linecap="round" stroke-linejoin="round" stroke-width="5.000000"
	d="
M929.000000,538.500000 
	C935.802673,537.532776 941.797729,541.377319 948.484497,541.766724 
	C952.430847,541.996521 953.868408,548.296021 950.891541,552.930298 
	C946.461304,559.827087 942.677917,567.834106 933.963196,570.373779 
	C928.708801,571.905029 925.234436,575.660645 920.946594,578.416931 
	C917.422852,580.682007 913.562073,582.521973 908.965637,581.689941 
	C908.470703,581.600403 906.864868,581.483704 906.839844,581.443726 
	C902.587830,574.656677 895.208435,573.413513 888.500000,571.000000 
"/>
<path fill="none" opacity="1.000000" stroke="#000000" stroke-linecap="round" stroke-linejoin="round" stroke-width="4.000000"
	d="
M456.000000,448.000031 
	C467.166656,450.833344 478.342804,453.629944 489.497955,456.507935 
	C510.206268,461.850555 530.900146,467.240845 551.537598,472.862030 
	C562.594238,475.873627 573.469543,479.439209 584.500000,482.500000 
"/>
<path fill="none" opacity="1.000000" stroke="#000000" stroke-linecap="round" stroke-linejoin="round" stroke-width="4.000000"
	d="
M924.500000,533.000000 
	C929.289856,544.969727 940.837585,546.405151 951.000000,550.000000 
"/>
<path fill="none" opacity="1.000000" stroke="#000000" stroke-linecap="round" stroke-linejoin="round" stroke-width="4.000000"
	d="
M551.000000,460.500000 
	C536.666687,456.166656 522.333679,451.832031 507.999695,447.500977 
	C504.668365,446.494385 501.333344,445.500000 498.000000,444.500000 
"/>
<path fill="none" opacity="1.000000" stroke="#000000" stroke-linecap="round" stroke-linejoin="round" stroke-width="4.000000"
	d="
M519.000000,522.000000 
	C506.666656,519.333313 494.333344,516.666626 482.000000,514.000000 
"/>
<path fill="none" opacity="1.000000" stroke="#000000" stroke-linecap="round" stroke-linejoin="round" stroke-width="4.000000"
	d="
M852.000000,562.500000 
	C863.535400,564.307861 874.958252,566.596497 885.996033,570.511169 
	C886.693237,570.758423 887.333313,571.166687 888.000000,571.500000 
"/>
<path fill="none" opacity="1.000000" stroke="#000000" stroke-linecap="round" stroke-linejoin="round" stroke-width="4.000000"
	d="
M439.000000,473.000000 
	C445.082825,476.963104 452.303558,477.591400 459.042633,479.335236 
	C474.574951,483.354431 490.290497,486.707367 506.009094,489.956024 
	C536.794617,496.318787 566.865173,505.547943 597.495056,512.521667 
	C598.201050,512.682373 598.833313,513.166687 599.500000,513.500000 
"/>
<path fill="none" opacity="1.000000" stroke="#000000" stroke-linecap="round" stroke-linejoin="round" stroke-width="4.000000"
	d="
M423.500000,498.000000 
	C425.597351,503.463135 430.979187,502.382446 435.029480,503.380341 
	C449.788208,507.016571 464.665985,510.169678 479.503021,513.486511 
	C479.979218,513.592957 480.500000,513.500000 481.000000,513.500000 
"/>
<path fill="none" opacity="1.000000" stroke="#000000" stroke-linecap="round" stroke-linejoin="round" stroke-width="5.000000"
	d="
M494.000000,395.500000 
	C499.876770,398.964264 506.139130,401.562256 512.483215,404.042969 
	C521.788391,407.681519 528.838379,415.132996 538.399902,418.763580 
	C549.237305,422.878632 558.091309,430.953522 568.001343,436.997772 
	C570.003906,438.219116 571.753601,439.655121 572.500000,442.000000 
"/>
<path fill="none" opacity="1.000000" stroke="#000000" stroke-linecap="round" stroke-linejoin="round" stroke-width="4.000000"
	d="
M431.000000,485.000000 
	C436.941101,488.188293 443.662750,488.748169 450.029938,490.383392 
	C466.941772,494.726746 483.993652,498.527252 501.002197,502.490570 
	C512.657410,505.206451 524.354980,507.742523 535.995178,510.520294 
	C555.734253,515.230774 575.624329,519.354797 595.000366,525.498779 
	C601.331299,527.506287 607.666687,529.500000 614.000000,531.500000 
"/>
<path fill="none" opacity="1.000000" stroke="#000000" stroke-linecap="round" stroke-linejoin="round" stroke-width="4.000000"
	d="
M520.000000,522.500000 
	C539.274414,526.657471 558.069702,532.569031 577.027405,537.902588 
	C586.704346,540.625061 596.669800,542.319336 606.497253,544.512390 
	C608.349854,544.925842 610.166687,545.500000 612.000000,546.000000 
"/>
<path fill="none" opacity="1.000000" stroke="#000000" stroke-linecap="round" stroke-linejoin="round" stroke-width="4.000000"
	d="
M497.000000,444.000000 
	C486.236664,440.975983 475.257721,438.641968 465.000000,434.000000 
"/>
<path fill="none" opacity="1.000000" stroke="#000000" stroke-linecap="round" stroke-linejoin="round" stroke-width="4.000000"
	d="
M518.500000,437.500000 
	C512.459167,435.980316 506.747162,433.276886 500.500000,432.500000 
"/>
<path fill="none" opacity="1.000000" stroke="#000000" stroke-linecap="round" stroke-linejoin="round" stroke-width="4.000000"
	d="
M487.500000,403.500000 
	C495.160706,404.804443 502.101044,408.364929 509.451935,410.654327 
	C513.300293,411.852966 517.218018,413.032257 520.984314,414.539185 
	C522.724243,415.235321 523.984680,415.105286 525.000000,413.500000 
"/>
<path fill="none" opacity="1.000000" stroke="#000000" stroke-linecap="round" stroke-linejoin="round" stroke-width="5.000000"
	d="
M574.000000,442.500000 
	C584.542175,446.619568 592.799011,454.295776 601.975952,460.535370 
	C603.144348,461.329834 604.271484,462.401306 604.500000,464.000000 
"/>
<path fill="none" opacity="1.000000" stroke="#000000" stroke-linecap="round" stroke-linejoin="round" stroke-width="4.000000"
	d="
M684.500000,417.000000 
	C682.513062,420.500000 684.271790,424.129395 684.788452,427.455200 
	C685.141968,429.731171 684.818481,432.312714 686.000000,434.500000 
"/>
<path fill="none" opacity="1.000000" stroke="#000000" stroke-linecap="round" stroke-linejoin="round" stroke-width="5.000000"
	d="
M509.000061,321.500061 
	C510.378448,320.036987 511.756836,318.573883 513.354980,316.877502 
	C517.369873,320.678894 519.816467,325.151703 523.459595,327.929657 
	C523.804871,332.138214 519.949524,331.616150 518.539490,333.843964 
	C513.948730,330.310913 512.376160,324.391327 507.500000,321.500000 
"/>
<path fill="none" opacity="1.000000" stroke="#000000" stroke-linecap="round" stroke-linejoin="round" stroke-width="4.000000"
	d="
M634.500000,540.500000 
	C633.843689,537.903687 631.793579,537.135071 629.508057,536.472290 
	C624.648438,535.062927 619.833374,533.499939 615.000000,531.999939 
"/>
<path fill="none" opacity="1.000000" stroke="#000000" stroke-linecap="round" stroke-linejoin="round" stroke-width="5.000000"
	d="
M606.500000,465.500000 
	C611.052979,466.166779 614.498779,469.335022 617.312256,472.185303 
	C622.943542,477.890381 630.515747,480.973450 635.682617,487.352081 
	C639.060486,491.522034 644.864563,493.231537 649.095825,496.889160 
	C652.773682,500.068420 654.860229,502.334351 653.392151,508.099854 
	C652.004639,513.548706 653.107666,519.763062 651.495605,525.498779 
	C651.024780,527.173645 650.500000,528.833313 650.000000,530.500000 
"/>
<path fill="none" opacity="1.000000" stroke="#000000" stroke-linecap="round" stroke-linejoin="round" stroke-width="4.000000"
	d="
M567.499939,477.000000 
	C568.333191,473.666626 569.166443,470.333282 570.121094,466.514435 
	C564.103333,464.683167 558.051636,462.841583 552.000000,461.000000 
"/>
<path fill="none" opacity="1.000000" stroke="#000000" stroke-linecap="round" stroke-linejoin="round" stroke-width="4.000000"
	d="
M483.500000,410.500000 
	C484.554016,413.301849 486.515137,414.731964 489.477783,415.577820 
	C499.917419,418.558563 510.432526,421.342499 520.500000,425.500000 
"/>
<path fill="none" opacity="1.000000" stroke="#000000" stroke-linecap="round" stroke-linejoin="round" stroke-width="4.000000"
	d="
M856.000000,555.000000 
	C860.349670,557.434570 865.378235,557.143494 870.044678,558.323425 
	C880.857666,561.057556 891.721069,563.770874 902.402710,566.838867 
	C909.354919,568.835632 916.526367,571.780579 922.500000,576.500000 
"/>
<path fill="none" opacity="1.000000" stroke="#000000" stroke-linecap="round" stroke-linejoin="round" stroke-width="4.000000"
	d="
M837.000000,536.000000 
	C846.500000,537.166687 856.108276,537.784119 865.474365,539.630188 
	C879.136902,542.323181 892.869080,544.798584 906.560791,547.145325 
	C919.427124,549.350525 930.773926,554.680420 942.492798,559.517517 
	C943.381104,559.884216 944.166687,560.500000 945.000000,561.000000 
"/>
<path fill="none" opacity="1.000000" stroke="#000000" stroke-linecap="round" stroke-linejoin="round" stroke-width="4.000000"
	d="
M601.500000,501.000000 
	C603.680237,497.075500 601.287720,492.419373 603.630859,488.265625 
	C597.551819,486.500122 591.525940,484.750061 585.500000,483.000000 
"/>
<path fill="none" opacity="1.000000" stroke="#000000" stroke-linecap="round" stroke-linejoin="round" stroke-width="4.000000"
	d="
M852.000000,516.000000 
	C861.646423,518.902344 871.427490,521.314148 881.047729,524.348694 
	C887.030457,526.235901 892.375977,529.597656 898.493958,531.025940 
	C900.744629,531.551270 900.773438,534.046570 902.000000,535.500000 
"/>
<path fill="none" opacity="1.000000" stroke="#000000" stroke-linecap="round" stroke-linejoin="round" stroke-width="4.000000"
	d="
M600.500000,514.000000 
	C612.541992,515.966736 623.679138,520.771545 635.346191,524.824463 
	C633.230652,528.804993 633.720337,533.080627 632.500000,537.000000 
"/>
<path fill="none" opacity="1.000000" stroke="#000000" stroke-linecap="round" stroke-linejoin="round" stroke-width="4.000000"
	d="
M892.500000,558.000000 
	C901.666687,560.500000 910.885254,562.829041 919.972656,565.589966 
	C923.283081,566.595703 927.282288,567.211182 928.500000,571.500000 
"/>
<path fill="none" opacity="1.000000" stroke="#000000" stroke-linecap="round" stroke-linejoin="round" stroke-width="4.000000"
	d="
M894.500000,553.000000 
	C903.833313,554.500000 913.159790,556.045471 922.505493,557.463989 
	C924.522156,557.770081 926.230652,558.657349 928.527588,559.748291 
	C926.209290,562.105591 928.750977,565.475647 926.500000,568.000000 
"/>
<path fill="none" opacity="1.000000" stroke="#000000" stroke-linecap="round" stroke-linejoin="round" stroke-width="3.000000"
	d="
M721.000000,438.000000 
	C719.936218,440.532928 720.162292,442.755585 721.950806,445.038513 
	C724.256470,447.981506 726.596741,450.956451 728.000000,454.500000 
"/>
<path fill="none" opacity="1.000000" stroke="#000000" stroke-linecap="round" stroke-linejoin="round" stroke-width="4.000000"
	d="
M603.500000,477.500000 
	C605.131714,473.666321 603.771484,469.209320 606.378357,465.424316 
	C602.776123,463.507019 598.993774,464.489777 595.424744,463.209747 
	C577.421814,456.753174 559.169434,450.991638 540.998596,445.004181 
	C533.840332,442.645447 526.666687,440.333344 519.500000,438.000000 
"/>
<path fill="none" opacity="1.000000" stroke="#000000" stroke-linecap="round" stroke-linejoin="round" stroke-width="4.000000"
	d="
M499.500000,432.000000 
	C492.666656,429.833344 485.819946,427.707611 479.008148,425.475128 
	C476.955505,424.802399 475.000000,423.833313 473.000000,423.000000 
"/>
<path fill="none" opacity="1.000000" stroke="#000000" stroke-linecap="round" stroke-linejoin="round" stroke-width="4.000000"
	d="
M521.500000,426.000000 
	C532.666687,430.000000 543.838867,433.984619 554.997070,438.008179 
	C559.015442,439.457184 563.119995,440.750031 566.956177,442.591309 
	C569.358276,443.744293 571.333313,441.090759 573.735718,442.653320 
	C573.003662,446.696136 572.251831,450.848053 571.500000,455.000000 
"/>
<path fill="none" opacity="1.000000" stroke="#000000" stroke-linecap="round" stroke-linejoin="round" stroke-width="4.000000"
	d="
M570.500000,467.000000 
	C581.855835,470.766357 593.211670,474.532684 604.617004,478.315460 
	C602.750000,481.259277 604.082031,484.703430 602.500000,487.500000 
"/>
<path fill="none" opacity="1.000000" stroke="#000000" stroke-linecap="round" stroke-linejoin="round" stroke-width="5.000000"
	d="
M482.500000,303.500000 
	C485.666656,305.166687 488.919495,306.690765 491.976654,308.538605 
	C495.276031,310.532837 496.679108,309.060699 497.666199,305.973999 
	C495.360535,302.925964 492.013824,301.391815 488.971466,299.547089 
	C485.095337,297.196777 483.803741,297.991455 482.500000,303.000000 
"/>
<path fill="none" opacity="1.000000" stroke="#000000" stroke-linecap="round" stroke-linejoin="round" stroke-width="5.000000"
	d="
M471.500000,315.500000 
	C474.517120,319.173920 479.648560,320.111664 482.643372,323.973969 
	C482.097992,326.327850 479.988190,327.137665 478.682007,328.902893 
	C474.989349,326.238831 471.609619,323.800537 468.533630,321.581390 
	C468.389496,319.076752 470.654236,318.638062 471.000000,317.000000 
"/>
<path fill="none" opacity="1.000000" stroke="#000000" stroke-linecap="round" stroke-linejoin="round" stroke-width="4.000000"
	d="
M636.500000,499.000000 
	C630.974121,497.949402 626.172607,494.581055 620.500000,494.000000 
"/>
<path fill="none" opacity="1.000000" stroke="#000000" stroke-linecap="round" stroke-linejoin="round" stroke-width="4.000000"
	d="
M364.500000,441.000000 
	C368.867828,444.020844 374.186646,443.611633 379.029175,444.889496 
	C384.065033,446.218414 389.334076,446.662170 394.499634,447.502289 
	C396.447876,447.819183 397.697693,449.203461 399.000000,450.500000 
"/>
<path fill="none" opacity="1.000000" stroke="#000000" stroke-linecap="round" stroke-linejoin="round" stroke-width="4.000000"
	d="
M392.000000,463.500000 
	C388.782684,460.309235 384.370026,460.831909 380.477966,460.120575 
	C373.983063,458.933472 367.718475,456.449493 361.000000,456.500000 
"/>
<path fill="none" opacity="1.000000" stroke="#000000" stroke-linecap="round" stroke-linejoin="round" stroke-width="5.000000"
	d="
M494.500000,376.500000 
	C495.006561,373.397369 492.942505,371.026428 491.349609,369.126068 
	C488.602966,365.849152 486.058105,369.420929 483.499237,370.535645 
	C483.460358,372.035706 484.031433,373.248749 484.951141,374.534943 
	C488.475525,379.463593 488.395081,379.495422 494.010162,377.023102 
	C494.769653,376.688690 495.666656,376.666687 496.500000,376.500000 
"/>
<path fill="none" opacity="1.000000" stroke="#000000" stroke-linecap="round" stroke-linejoin="round" stroke-width="4.000000"
	d="
M842.000000,507.500000 
	C850.333313,509.500000 858.669556,511.488159 866.994812,513.521301 
	C867.700745,513.693726 868.333313,514.166687 869.000000,514.500000 
"/>
<path fill="none" opacity="1.000000" stroke="#000000" stroke-linecap="round" stroke-linejoin="round" stroke-width="4.000000"
	d="
M579.000000,521.500000 
	C577.666687,526.666687 576.333313,531.833313 575.000000,537.000000 
"/>
<path fill="none" opacity="1.000000" stroke="#000000" stroke-linecap="round" stroke-linejoin="round" stroke-width="4.000000"
	d="
M604.000000,488.500000 
	C609.166687,490.166656 614.333313,491.833344 619.500000,493.500000 
"/>
<path fill="none" opacity="1.000000" stroke="#000000" stroke-linecap="round" stroke-linejoin="round" stroke-width="4.000000"
	d="
M382.500000,432.500000 
	C390.687103,434.897888 399.194641,435.694733 407.495789,437.519226 
	C408.360596,437.709320 409.166656,438.166656 410.000000,438.500000 
"/>
<path fill="none" opacity="1.000000" stroke="#000000" stroke-linecap="round" stroke-linejoin="round" stroke-width="4.000000"
	d="
M603.000000,502.000000 
	C614.379150,504.821991 625.708252,507.803894 636.627075,512.034973 
	C635.862122,516.338074 635.181091,520.169006 634.500061,524.000000 
"/>
<path fill="none" opacity="1.000000" stroke="#000000" stroke-linecap="round" stroke-linejoin="round" stroke-width="4.000000"
	d="
M454.000031,462.500000 
	C451.166687,474.833344 448.440155,487.192474 445.467102,499.492035 
	C442.960022,509.863953 440.166687,520.166687 437.500031,530.500000 
"/>
<path fill="none" opacity="1.000000" stroke="#000000" stroke-linecap="round" stroke-linejoin="round" stroke-width="4.000000"
	d="
M652.000000,518.500000 
	C647.087341,516.428528 642.378906,513.799927 637.000000,513.000000 
"/>
<path fill="none" opacity="1.000000" stroke="#000000" stroke-linecap="round" stroke-linejoin="round" stroke-width="4.000000"
	d="
M562.500000,504.500000 
	C559.112793,515.106323 557.845093,526.169739 555.552429,537.011108 
	C554.261414,543.116211 553.500000,549.333313 552.500000,555.500000 
"/>
<path fill="none" opacity="1.000000" stroke="#000000" stroke-linecap="round" stroke-linejoin="round" stroke-width="3.000000"
	d="
M913.500000,539.500000 
	C917.069397,544.086914 923.055603,544.427917 927.514221,547.479248 
	C933.318054,551.451233 940.435791,552.565125 946.500000,556.000000 
"/>
<path fill="none" opacity="1.000000" stroke="#000000" stroke-linecap="round" stroke-linejoin="round" stroke-width="4.000000"
	d="
M479.000000,439.500000 
	C475.666260,449.631622 474.154785,460.201813 471.568390,470.517151 
	C468.560211,482.514893 466.191315,494.657776 462.591034,506.527618 
	C459.802032,515.722717 457.833313,525.166687 455.499969,534.500000 
"/>
<path fill="none" opacity="1.000000" stroke="#000000" stroke-linecap="round" stroke-linejoin="round" stroke-width="4.000000"
	d="
M503.000000,420.000000 
	C499.025330,436.133148 496.181610,452.523010 491.599823,468.528564 
	C489.356934,476.363617 488.236420,484.515320 486.484619,492.496613 
	C483.372620,506.675262 480.182526,520.836914 476.974823,534.994324 
	C476.663055,536.370300 476.000031,537.666687 475.500031,539.000000 
"/>
<path fill="none" opacity="1.000000" stroke="#000000" stroke-linecap="round" stroke-linejoin="round" stroke-width="4.000000"
	d="
M517.500000,451.000000 
	C514.500000,463.000000 511.500000,475.000000 508.499969,487.000000 
	C504.833282,501.666656 501.166656,516.333313 497.499969,531.000000 
"/>
<path fill="none" opacity="1.000000" stroke="#000000" stroke-linecap="round" stroke-linejoin="round" stroke-width="8.000000"
	d="
M834.500000,541.000000 
	C837.584167,545.546692 842.138000,548.429565 846.532532,551.452698 
	C847.772766,552.305908 849.331970,553.750366 850.974854,552.467773 
	C857.575684,547.314880 864.295105,550.564148 870.998596,552.006409 
	C872.341492,552.295410 873.666687,552.666687 875.000000,553.000000 
"/>
<path fill="none" opacity="1.000000" stroke="#000000" stroke-linecap="round" stroke-linejoin="round" stroke-width="4.000000"
	d="
M605.000000,478.500000 
	C609.833313,480.333313 614.666687,482.166656 619.500000,484.000000 
"/>
<path fill="none" opacity="1.000000" stroke="#000000" stroke-linecap="round" stroke-linejoin="round" stroke-width="4.000000"
	d="
M525.500000,495.000000 
	C522.790710,503.842377 522.110352,513.111938 519.615295,522.032227 
	C517.092346,531.052673 515.500000,540.333313 513.500000,549.500000 
"/>
<path fill="none" opacity="1.000000" stroke="#000000" stroke-linecap="round" stroke-linejoin="round" stroke-width="4.000000"
	d="
M547.500000,486.000000 
	C544.833313,498.000000 542.166687,510.000000 539.499939,522.000000 
	C537.166626,532.500000 534.833313,543.000000 532.499939,553.500000 
"/>
<path fill="none" opacity="1.000000" stroke="#000000" stroke-linecap="round" stroke-linejoin="round" stroke-width="8.000000"
	d="
M877.000000,553.000000 
	C880.500000,553.666687 883.989136,554.399109 887.503174,554.980652 
	C890.732544,555.515015 892.189819,556.737732 891.654236,560.521851 
	C891.159424,564.018372 889.380188,567.053406 889.000000,570.500000 
"/>
<path fill="none" opacity="1.000000" stroke="#000000" stroke-linecap="round" stroke-linejoin="round" stroke-width="3.000000"
	d="
M870.000000,575.000000 
	C874.740234,576.118408 878.767639,578.766235 883.035034,580.930969 
	C884.919556,581.886963 884.768066,583.603271 885.500000,585.000000 
"/>
<path fill="none" opacity="1.000000" stroke="#000000" stroke-linecap="round" stroke-linejoin="round" stroke-width="4.000000"
	d="
M617.500061,519.000000 
	C615.833374,527.333313 614.161133,535.665588 612.504211,544.000793 
	C612.107666,545.995361 613.380310,547.433533 614.250000,549.000000 
"/>
<path fill="none" opacity="1.000000" stroke="#000000" stroke-linecap="round" stroke-linejoin="round" stroke-width="4.000000"
	d="
M534.500000,456.000000 
	C530.713257,468.511658 527.671631,481.209564 525.000000,494.000000 
"/>
<path fill="none" opacity="1.000000" stroke="#000000" stroke-linecap="round" stroke-linejoin="round" stroke-width="4.000000"
	d="
M426.000000,502.000000 
	C424.510223,510.326843 421.220184,518.134033 419.000000,526.250000 
"/>
<path fill="none" opacity="1.000000" stroke="#000000" stroke-linecap="round" stroke-linejoin="round" stroke-width="4.000000"
	d="
M622.000000,477.500000 
	C619.474304,479.094666 621.209656,482.000397 619.722839,484.319458 
	C624.580811,485.510040 628.824951,488.366974 634.000000,487.500000 
"/>
<path fill="none" opacity="1.000000" stroke="#000000" stroke-linecap="round" stroke-linejoin="round" stroke-width="4.000000"
	d="
M860.000000,549.000000 
	C862.101562,537.044250 864.343689,525.126648 869.603882,513.762939 
	C873.654602,516.498962 878.457275,516.810913 883.000000,518.000000 
"/>
<path fill="none" opacity="1.000000" stroke="#000000" stroke-linecap="round" stroke-linejoin="round" stroke-width="4.000000"
	d="
M567.500000,478.000000 
	C565.666687,486.500000 563.833374,495.000000 562.000000,503.500000 
"/>
<path fill="none" opacity="1.000000" stroke="#000000" stroke-linecap="round" stroke-linejoin="round" stroke-width="5.000000"
	d="
M849.500000,553.500000 
	C850.338928,561.603882 852.684692,569.127869 858.002319,575.498108 
	C860.439636,578.417908 862.076172,581.959290 865.000000,584.500000 
"/>
<path fill="none" opacity="1.000000" stroke="#000000" stroke-linecap="round" stroke-linejoin="round" stroke-width="4.000000"
	d="
M556.000000,439.500000 
	C554.166687,449.166656 552.143738,458.802673 550.573120,468.511841 
	C549.671021,474.088257 548.327637,479.534149 547.000000,485.000000 
"/>
<path fill="none" opacity="1.000000" stroke="#000000" stroke-linecap="round" stroke-linejoin="round" stroke-width="4.000000"
	d="
M587.500000,473.000000 
	C584.804993,479.225677 585.333191,486.030853 583.991638,492.498260 
	C582.059509,501.812531 581.336609,511.363739 578.500000,520.500000 
"/>
<path fill="none" opacity="1.000000" stroke="#000000" stroke-linecap="round" stroke-linejoin="round" stroke-width="4.000000"
	d="
M497.000000,532.000000 
	C496.000000,536.000000 495.000000,540.000000 494.000000,544.000000 
"/>
<path fill="none" opacity="1.000000" stroke="#000000" stroke-linecap="round" stroke-linejoin="round" stroke-width="3.000000"
	d="
M611.500000,357.500000 
	C606.238037,356.976013 603.154907,360.809814 599.500000,363.500000 
"/>
<path fill="none" opacity="1.000000" stroke="#000000" stroke-linecap="round" stroke-linejoin="round" stroke-width="4.000000"
	d="
M485.500000,415.000000 
	C483.110748,422.816681 481.540710,430.877380 478.500000,438.500000 
"/>
<path fill="none" opacity="1.000000" stroke="#000000" stroke-linecap="round" stroke-linejoin="round" stroke-width="4.000000"
	d="
M575.500000,538.000000 
	C573.329224,544.345215 571.724915,550.821167 571.000000,557.500000 
"/>
<path fill="none" opacity="1.000000" stroke="#000000" stroke-linecap="round" stroke-linejoin="round" stroke-width="4.000000"
	d="
M523.500000,415.500000 
	C521.833313,424.500000 520.174316,433.501434 518.495117,442.499084 
	C518.027405,445.005127 517.500000,447.500000 517.000000,450.000000 
"/>
<path fill="none" opacity="1.000000" stroke="#000000" stroke-linecap="round" stroke-linejoin="round" stroke-width="4.000000"
	d="
M399.000000,436.500000 
	C398.166656,440.333344 397.333313,444.166656 396.500000,448.000000 
"/>
<path fill="none" opacity="1.000000" stroke="#000000" stroke-linecap="round" stroke-linejoin="round" stroke-width="5.000000"
	d="
M621.000000,485.500000 
	C620.123535,489.791565 619.892517,494.141815 620.031494,498.498993 
	C620.113953,501.082825 619.816650,503.564453 619.000000,506.000000 
"/>
<path fill="none" opacity="1.000000" stroke="#000000" stroke-linecap="round" stroke-linejoin="round" stroke-width="4.000000"
	d="
M855.500000,498.000000 
	C853.665588,506.599640 852.684875,515.459534 847.561646,523.041687 
	C847.097778,523.728210 847.500000,525.000000 847.500000,526.000000 
"/>
<path fill="none" opacity="1.000000" stroke="#000000" stroke-linecap="round" stroke-linejoin="round" stroke-width="4.000000"
	d="
M638.000000,500.500000 
	C636.340759,503.978973 637.511658,508.101135 635.500000,511.500000 
"/>
<path fill="none" opacity="1.000000" stroke="#000000" stroke-linecap="round" stroke-linejoin="round" stroke-width="4.000000"
	d="
M401.500000,424.500000 
	C402.232605,428.639191 399.686615,431.884216 398.500000,435.500000 
"/>
<path fill="none" opacity="1.000000" stroke="#000000" stroke-linecap="round" stroke-linejoin="round" stroke-width="4.000000"
	d="
M857.000000,571.750000 
	C861.527466,570.364990 864.761719,574.623047 869.653442,573.417358 
	C868.152832,577.879150 868.903259,581.737610 866.000000,584.500000 
"/>
<path fill="none" opacity="1.000000" stroke="#000000" stroke-linecap="round" stroke-linejoin="round" stroke-width="4.000000"
	d="
M540.500000,421.000000 
	C539.666687,424.666656 538.833313,428.333344 538.000000,432.000000 
"/>
<path fill="none" opacity="1.000000" stroke="#000000" stroke-linecap="round" stroke-linejoin="round" stroke-width="4.000000"
	d="
M839.000000,515.000000 
	C842.531738,516.427063 846.926086,514.058594 850.000000,517.500000 
"/>
<path fill="none" opacity="1.000000" stroke="#000000" stroke-linecap="round" stroke-linejoin="round" stroke-width="4.000000"
	d="
M844.000000,496.500000 
	C842.454895,497.651611 842.795288,499.390381 842.435120,500.985352 
	C840.629761,508.980804 838.542053,516.885498 832.543762,523.042603 
	C832.046021,523.553467 832.166687,524.666687 832.000000,525.500000 
"/>
<path fill="none" opacity="1.000000" stroke="#000000" stroke-linecap="round" stroke-linejoin="round" stroke-width="3.000000"
	d="
M791.000000,459.000000 
	C789.461731,462.790771 790.834167,465.697632 793.434570,468.559479 
	C795.115906,470.409882 796.166626,472.833344 797.500000,475.000000 
"/>
<path fill="none" opacity="1.000000" stroke="#000000" stroke-linecap="round" stroke-linejoin="round" stroke-width="4.000000"
	d="
M536.500000,444.500000 
	C535.666687,448.000000 534.833374,451.500000 534.000000,455.000000 
"/>
<path fill="none" opacity="1.000000" stroke="#000000" stroke-linecap="round" stroke-linejoin="round" stroke-width="5.000000"
	d="
M497.500000,347.500000 
	C495.007690,343.867157 491.568542,340.955719 489.648926,336.790527 
	C492.779633,332.387390 493.100250,332.298401 496.479584,336.018555 
	C498.631287,338.387207 500.585327,340.935394 502.554291,343.314087 
	C501.753448,346.086761 498.776337,346.443024 497.500000,348.500000 
"/>
<path fill="none" opacity="1.000000" stroke="#000000" stroke-linecap="round" stroke-linejoin="round" stroke-width="4.000000"
	d="
M619.500000,507.500000 
	C618.666687,511.000000 617.833374,514.500000 617.000000,518.000000 
"/>
<path fill="none" opacity="1.000000" stroke="#000000" stroke-linecap="round" stroke-linejoin="round" stroke-width="4.000000"
	d="
M589.000000,461.500000 
	C587.502686,464.841797 587.720459,468.510254 587.000000,472.000000 
"/>
<path fill="none" opacity="1.000000" stroke="#000000" stroke-linecap="round" stroke-linejoin="round" stroke-width="3.000000"
	d="
M929.000000,560.000000 
	C932.375183,561.928772 936.557434,562.162720 939.500000,565.000000 
"/>
<path fill="none" opacity="1.000000" stroke="#000000" stroke-linecap="round" stroke-linejoin="round" stroke-width="4.000000"
	d="
M538.500061,433.000000 
	C537.666687,436.333344 536.833374,439.666687 536.000061,443.000000 
"/>
<path fill="none" opacity="1.000000" stroke="#000000" stroke-linecap="round" stroke-linejoin="round" stroke-width="4.000000"
	d="
M572.000000,456.000000 
	C571.166687,459.333344 570.333374,462.666656 569.500000,466.000000 
"/>
<path fill="none" opacity="1.000000" stroke="#000000" stroke-linecap="round" stroke-linejoin="round" stroke-width="4.000000"
	d="
M885.000000,520.000000 
	C884.658630,531.090576 881.129028,541.645752 876.589294,551.307007 
	C873.093567,558.746643 872.045471,566.769043 868.500000,574.000000 
"/>
<path fill="none" opacity="1.000000" stroke="#000000" stroke-linecap="round" stroke-linejoin="round" stroke-width="4.000000"
	d="
M508.000000,403.000000 
	C506.500000,408.333344 505.000000,413.666656 503.500000,419.000000 
"/>
<path fill="none" opacity="1.000000" stroke="#000000" stroke-linecap="round" stroke-linejoin="round" stroke-width="4.000000"
	d="
M907.000000,569.500000 
	C906.336243,572.383179 905.969360,575.353760 904.500000,578.000000 
"/>
<path fill="none" opacity="1.000000" stroke="#000000" stroke-linecap="round" stroke-linejoin="round" stroke-width="3.000000"
	d="
M873.000000,505.000000 
	C871.613220,507.696838 870.418335,510.461365 870.000000,513.500000 
"/>
<path fill="none" opacity="1.000000" stroke="#000000" stroke-linecap="round" stroke-linejoin="round" stroke-width="4.000000"
	d="
M661.000000,522.500000 
	C658.625366,520.665894 655.828918,519.795837 653.000000,519.000000 
"/>
<path fill="none" opacity="1.000000" stroke="#000000" stroke-linecap="round" stroke-linejoin="round" stroke-width="4.000000"
	d="
M759.000000,450.500000 
	C759.166687,453.000000 759.333313,455.500000 759.500000,458.000000 
"/>
<path fill="none" opacity="1.000000" stroke="#000000" stroke-linecap="round" stroke-linejoin="round" stroke-width="4.000000"
	d="
M896.000000,545.500000 
	C893.965149,548.649231 895.374939,553.520813 891.000000,555.500000 
"/>
<path fill="none" opacity="1.000000" stroke="#000000" stroke-linecap="round" stroke-linejoin="round" stroke-width="5.000000"
	d="
M476.000000,348.500000 
	C476.666656,349.166656 477.320160,349.847168 478.002106,350.497803 
	C483.102844,355.364563 484.321838,356.551727 476.000000,360.500000 
	C468.606689,354.241882 468.508575,351.886902 475.500000,348.500000 
"/>
<path fill="none" opacity="1.000000" stroke="#000000" stroke-linecap="round" stroke-linejoin="round" stroke-width="4.000000"
	d="
M912.500000,549.000000 
	C911.641479,555.707214 909.948792,562.200562 907.500000,568.500000 
"/>
<path fill="none" opacity="1.000000" stroke="#000000" stroke-linecap="round" stroke-linejoin="round" stroke-width="4.000000"
	d="
M918.000000,535.000000 
	C914.645691,539.540710 910.306702,538.822632 906.031250,536.929382 
	C903.689697,535.892456 901.552979,535.587036 899.525452,537.035645 
	C896.121948,539.467529 892.666565,536.982727 890.106873,536.165344 
	C881.928711,533.553894 873.432861,532.073730 865.399780,528.741638 
	C859.796875,526.417664 853.251587,526.381348 847.000000,526.500000 
"/>
</svg>